<?xml version="1.0" standalone="no"?>
<!DOCTYPE svg PUBLIC "-//W3C//DTD SVG 20010904//EN"
 "http://www.w3.org/TR/2001/REC-SVG-20010904/DTD/svg10.dtd">
<svg version="1.0" xmlns="http://www.w3.org/2000/svg"
 width="6000.000000pt" height="4000.000000pt" viewBox="0 0 6000.000000 4000.000000"
 preserveAspectRatio="xMidYMid meet">

<g transform="translate(0.000000,4000.000000) scale(0.100000,-0.100000)"
fill="#000000" stroke="none">
<path d="M37708 36268 c-13 -21 -85 -166 -137 -278 -11 -25 -42 -86 -68 -137
-27 -50 -53 -102 -59 -115 -6 -12 -90 -179 -187 -371 l-176 -347 52 -24 c153
-71 229 -106 233 -106 2 0 34 -14 70 -31 36 -17 69 -27 74 -23 16 17 210 411
210 426 0 8 8 26 19 39 21 28 95 172 106 208 4 12 18 39 31 58 13 20 24 41 24
48 0 7 11 28 24 48 13 19 30 51 37 71 7 20 21 45 30 55 9 10 20 28 24 41 4 13
20 45 36 70 35 58 45 99 27 121 -13 17 -343 269 -351 269 -3 0 -11 -10 -19
-22z"/>
<path d="M20316 34899 c-3 -19 -10 -169 -16 -334 -6 -165 -13 -311 -16 -325
-2 -14 -8 -155 -14 -313 -5 -158 -12 -292 -15 -297 -3 -5 -10 -121 -15 -257
-26 -703 -35 -822 -63 -794 -17 17 -87 14 -93 -4 -4 -10 -20 -15 -44 -15 -22
0 -41 -4 -44 -9 -3 -4 -26 -11 -52 -14 -26 -2 -49 -9 -53 -15 -3 -5 -49 -15
-101 -22 -52 -7 -102 -19 -111 -26 -8 -8 -28 -14 -43 -14 -14 0 -29 -7 -32
-15 -4 -9 -19 -15 -38 -15 -17 -1 -43 -11 -58 -23 -23 -19 -27 -31 -32 -97 -3
-41 -5 -124 -6 -183 l0 -108 -97 2 c-54 1 -103 6 -108 10 -6 4 -75 13 -155 19
-216 16 -252 21 -265 34 -6 6 -10 17 -7 24 2 6 -1 12 -7 12 -6 0 -15 9 -21 20
-7 14 -7 20 0 20 5 0 10 -7 10 -15 0 -8 5 -15 10 -15 13 0 13 97 0 105 -6 3
-17 -1 -26 -9 -11 -11 -35 -16 -83 -16 -49 0 -72 -4 -81 -15 -7 -8 -27 -15
-46 -15 -18 0 -36 -4 -39 -10 -3 -5 -22 -10 -41 -10 -24 0 -34 -5 -34 -15 0
-11 -11 -15 -37 -15 -21 0 -51 -7 -67 -15 -16 -9 -61 -20 -100 -26 -38 -5 -77
-16 -86 -24 -10 -9 -36 -15 -64 -15 -32 0 -48 -5 -52 -15 -4 -8 -19 -15 -34
-15 -16 0 -31 -4 -34 -9 -3 -4 -36 -11 -74 -14 -38 -4 -82 -14 -98 -22 -16 -8
-36 -15 -45 -15 -9 0 -19 -3 -23 -7 -4 -5 -42 -12 -84 -18 -63 -8 -79 -14 -86
-31 -8 -17 -24 -23 -96 -32 -48 -7 -99 -12 -114 -12 -14 0 -26 -4 -26 -9 0 -5
-13 -12 -30 -16 -16 -4 -30 -11 -30 -16 0 -5 -22 -9 -50 -9 -27 0 -50 -4 -50
-8 0 -10 -90 -32 -131 -32 -17 0 -32 -6 -35 -15 -4 -8 -18 -15 -34 -15 -15 0
-47 -7 -70 -15 -23 -8 -62 -15 -86 -15 -32 0 -44 -4 -44 -15 0 -11 -12 -15
-45 -15 -32 0 -45 -4 -45 -14 0 -10 -20 -16 -70 -21 -39 -4 -74 -13 -81 -21
-7 -9 -36 -15 -83 -16 -119 -4 1183 -16 2550 -23 l1291 -7 6 62 c4 35 7 122 8
194 0 72 4 210 9 306 5 96 14 303 19 460 6 157 15 364 21 460 11 187 22 474
44 1145 8 231 17 443 21 470 6 45 3 55 -24 98 -17 26 -31 52 -31 57 0 4 -4 10
-8 12 -5 2 -20 23 -34 47 l-26 44 -6 -34z"/>
<path d="M29520 34488 c0 -159 29 -343 76 -484 14 -42 23 -78 20 -81 -3 -3
-43 2 -88 11 -46 9 -109 21 -141 26 -32 6 -66 14 -75 19 -9 4 -44 11 -76 15
-33 4 -64 10 -70 15 -6 5 -37 11 -69 15 -32 3 -65 10 -75 15 -9 5 -46 14 -82
20 -65 12 -160 30 -255 50 -224 48 -283 59 -375 72 -41 5 -83 14 -92 19 -25
14 -96 12 -115 -2 -89 -72 -137 -128 -172 -203 -69 -145 -126 -366 -165 -632
-12 -81 -18 -98 -52 -143 -21 -27 -42 -50 -46 -50 -4 0 -8 -4 -8 -9 0 -6 -26
-45 -58 -88 -48 -63 -116 -169 -202 -313 -20 -34 -52 -102 -100 -215 -49 -117
-39 -181 73 -480 61 -162 111 -283 158 -383 21 -46 39 -86 39 -88 0 -4 111
-246 165 -358 29 -61 40 -97 47 -165 10 -99 46 -268 58 -276 5 -3 13 10 19 28
19 57 52 77 125 77 36 0 67 -4 70 -9 3 -5 18 -12 33 -16 46 -11 135 -77 227
-167 49 -49 91 -88 93 -88 27 0 -122 322 -232 499 -73 118 -175 249 -272 349
l-80 82 15 63 c8 34 21 76 29 94 7 17 13 38 13 47 0 8 6 30 14 48 8 18 31 74
52 123 21 50 51 111 66 136 15 25 28 51 28 58 0 6 4 11 8 11 5 0 14 11 20 25
6 14 17 25 25 25 7 0 35 -22 62 -50 27 -27 53 -50 58 -50 13 0 30 21 61 75 59
101 163 222 267 309 47 39 62 48 134 84 96 49 140 61 186 51 100 -23 659 13
1204 76 72 9 186 20 255 26 69 5 134 14 145 18 11 5 94 12 185 16 91 3 169 10
174 15 13 13 416 13 416 1 0 -5 35 -12 78 -16 42 -4 82 -11 87 -15 6 -4 26
-11 45 -15 19 -4 37 -10 40 -14 3 -3 27 -17 54 -31 106 -54 201 -179 234 -310
18 -66 27 -307 14 -323 -6 -7 -13 -34 -17 -62 -14 -103 -84 -256 -152 -335
-24 -26 -43 -53 -43 -59 0 -6 27 -43 60 -83 127 -151 269 -387 369 -613 12
-27 26 -58 32 -67 5 -10 9 -23 9 -29 0 -6 6 -25 14 -42 8 -18 24 -66 36 -107
13 -41 29 -93 35 -115 17 -54 41 -176 61 -315 18 -129 16 -406 -5 -540 -38
-245 -129 -505 -256 -730 -192 -340 -496 -659 -730 -766 -84 -39 -156 -31
-300 31 -227 98 -311 125 -500 163 -323 66 -789 62 -1320 -9 -611 -82 -912
-167 -1038 -295 -38 -38 -88 -124 -122 -209 -15 -39 -30 -73 -34 -78 -14 -15
-76 40 -136 120 -33 45 -64 82 -69 82 -14 1 14 -156 74 -419 214 -940 550
-1684 940 -2080 52 -53 129 -121 170 -151 87 -64 124 -73 354 -90 134 -10 526
-5 609 8 35 5 37 4 37 -20 0 -41 -17 -77 -34 -71 -15 6 -193 -42 -211 -57 -6
-4 -17 -25 -24 -46 -7 -21 -22 -58 -33 -83 -12 -25 -24 -54 -29 -65 -70 -173
-80 -191 -153 -266 -41 -42 -96 -94 -122 -115 -26 -21 -58 -49 -71 -60 -13
-12 -42 -34 -65 -50 -24 -16 -45 -31 -48 -34 -15 -15 -71 -50 -80 -50 -5 0
-10 -4 -10 -9 0 -6 -11 -16 -24 -23 -14 -7 -89 -51 -168 -99 -130 -77 -206
-119 -338 -185 -57 -28 -196 -93 -235 -110 -73 -30 -446 -217 -451 -225 -3 -5
-14 -9 -25 -9 -10 0 -19 -4 -19 -8 0 -5 -16 -16 -36 -26 -21 -9 -33 -21 -28
-25 5 -4 83 -32 174 -60 331 -106 385 -123 405 -131 11 -4 74 -25 140 -45 66
-21 136 -43 155 -50 19 -8 58 -20 85 -29 28 -9 131 -42 230 -74 99 -33 281
-92 405 -131 335 -108 305 -96 510 -194 63 -30 138 -64 165 -76 28 -12 86 -40
130 -62 75 -38 84 -46 155 -141 171 -229 378 -428 600 -580 36 -24 72 -48 80
-52 8 -4 35 -17 59 -30 l44 -23 59 29 c32 15 65 28 72 28 8 0 16 4 18 8 2 4
21 17 43 28 l40 21 3 71 c3 71 -3 83 -26 60 -6 -6 -20 -13 -31 -15 -10 -1 -47
-16 -82 -32 -114 -52 -104 -72 -104 202 l0 238 60 24 c33 14 66 25 73 25 6 0
12 4 12 10 0 5 16 12 35 16 19 3 35 10 35 15 0 4 24 15 53 24 44 13 74 14 202
5 240 -16 376 -30 430 -42 28 -6 101 -13 163 -15 104 -4 120 -2 185 22 76 28
117 43 182 68 22 8 87 32 145 52 58 20 114 41 125 46 11 4 49 18 85 30 36 12
79 27 95 34 17 7 68 26 115 43 111 39 365 130 413 148 20 8 54 20 75 28 20 8
84 31 142 51 58 20 114 41 125 45 11 5 85 31 165 60 80 28 163 58 185 67 63
24 103 39 215 78 58 20 113 41 122 46 38 20 81 -2 62 -32 -3 -5 76 -9 191 -9
151 0 195 3 194 13 -2 6 1 51 5 99 l8 87 43 20 c23 11 56 23 71 27 16 4 34 10
39 14 6 5 26 13 45 18 19 6 80 27 135 47 55 21 132 48 170 61 39 14 79 29 90
33 11 5 67 26 125 46 58 20 122 43 143 51 20 8 54 20 75 28 20 8 84 31 142 51
58 20 114 41 125 45 11 5 85 31 165 60 80 28 161 57 180 65 126 48 317 115
328 115 6 0 12 3 12 6 0 12 -35 33 -56 34 -11 0 -29 7 -40 15 -10 8 -26 15
-34 15 -8 0 -26 6 -40 13 -14 7 -47 21 -75 31 -27 10 -68 26 -90 36 -22 9 -60
24 -85 34 -47 19 -89 36 -143 60 -17 7 -57 24 -87 35 -30 12 -64 26 -75 31
-74 33 -115 50 -119 50 -3 0 -36 14 -73 31 -86 38 -130 58 -168 74 -16 6 -51
22 -76 34 -25 11 -51 21 -58 21 -6 0 -11 5 -11 10 0 6 -7 10 -16 10 -14 0 -38
10 -164 67 -30 14 -75 34 -100 45 -65 28 -97 42 -170 76 -36 17 -92 42 -125
57 -33 15 -82 37 -110 50 -27 13 -60 26 -72 30 -13 3 -23 11 -23 16 0 5 -7 9
-15 9 -8 0 -32 9 -52 20 -21 11 -43 20 -50 20 -7 0 -13 5 -13 10 0 6 -5 10
-11 10 -11 0 -63 23 -209 92 -305 145 -326 156 -355 195 -16 21 -32 40 -35 43
-4 3 -24 28 -46 55 -21 28 -45 57 -51 65 -24 29 -89 108 -120 146 -17 21 -46
57 -65 80 -18 22 -49 60 -68 84 -66 83 -59 80 -175 80 l-104 0 -25 53 c-13 28
-41 93 -61 142 -21 50 -44 104 -51 122 -8 17 -14 37 -14 45 0 7 -7 22 -15 32
-8 11 -15 29 -15 41 0 12 -4 25 -9 31 -9 9 -62 152 -82 224 -5 19 -14 44 -19
55 -4 11 -18 54 -30 95 -13 41 -29 92 -36 113 -8 20 -14 51 -14 67 0 17 -4 30
-8 30 -5 0 -13 30 -19 68 -7 37 -21 110 -33 162 -12 52 -28 122 -35 155 -8 33
-21 94 -31 135 -19 84 -20 97 -9 265 10 162 -18 334 -79 479 -9 21 -48 70 -88
109 -54 54 -85 95 -120 162 -193 371 -245 866 -132 1255 40 138 111 301 175
401 l30 47 2 258 c4 379 15 433 210 1045 86 269 108 380 109 529 0 106 -3 133
-22 180 -39 98 -117 174 -280 272 -89 53 -123 71 -520 267 -168 83 -314 156
-325 163 -132 85 -272 218 -386 365 -211 273 -370 392 -729 545 -91 39 -278
113 -390 153 -19 7 -53 20 -75 28 -22 9 -71 28 -110 43 -38 14 -114 46 -168
70 -84 38 -126 60 -225 119 -49 29 -135 90 -173 123 -86 74 -79 76 -79 -30z
m431 -6377 c195 -51 307 -101 420 -187 186 -142 303 -375 272 -542 -24 -128
-110 -250 -253 -361 -142 -110 -382 -223 -504 -237 -41 -5 -63 -2 -97 13 -69
31 -192 133 -343 287 l-140 141 -120 4 c-126 3 -279 -12 -332 -34 -39 -16 -52
-44 -108 -237 -72 -246 -110 -337 -168 -403 -91 -105 -198 -83 -308 63 -97
128 -200 375 -245 587 -24 108 -24 289 -1 375 33 124 116 242 211 302 66 42
93 43 197 10 140 -45 230 -56 448 -56 190 1 298 11 410 40 174 45 359 125 480
208 36 25 74 45 86 45 11 1 54 -8 95 -18z m3489 -2323 c-4 -24 -12 -56 -18
-73 -5 -16 -18 -59 -27 -95 -24 -88 -84 -271 -95 -292 -6 -10 -10 -23 -10 -30
-1 -7 -9 -31 -20 -53 -11 -22 -19 -46 -20 -53 0 -7 -4 -20 -10 -30 -13 -23
-50 -110 -50 -116 0 -14 -154 -331 -192 -396 -11 -19 -31 -54 -43 -77 -33 -61
-118 -196 -133 -212 -9 -10 -16 -11 -20 -3 -4 6 -23 12 -42 14 -30 3 -36 7
-40 32 l-5 30 -28 -33 c-15 -19 -26 -40 -22 -49 3 -10 0 -12 -10 -8 -9 3 -15
0 -15 -9 0 -7 -6 -20 -12 -27 -13 -14 -19 -22 -64 -98 -38 -63 -224 -309 -305
-405 -153 -179 -367 -372 -552 -496 -402 -270 -748 -311 -1050 -127 -72 44
-68 42 -176 148 -191 189 -358 496 -426 786 -26 107 -49 311 -39 338 4 10 22
-18 54 -82 99 -202 246 -387 400 -503 128 -97 310 -172 485 -199 87 -14 273
-13 368 1 483 72 989 436 1432 1029 47 63 112 149 144 190 53 69 98 134 127
185 6 11 40 67 76 125 36 58 84 141 108 185 23 44 52 95 62 114 11 19 53 101
94 183 41 81 76 148 77 148 2 0 1 -19 -3 -42z m-720 -1438 c0 -5 -5 -10 -11
-10 -5 0 -7 5 -4 10 3 6 8 10 11 10 2 0 4 -4 4 -10z m69 -47 c-9 -11 -15 -11
-28 -1 -9 7 -18 13 -20 15 -1 1 11 1 28 1 25 -1 29 -4 20 -15z m-49 -43 c0 -5
-5 -10 -11 -10 -5 0 -7 5 -4 10 3 6 8 10 11 10 2 0 4 -4 4 -10z m-17 -52 c-2
-4 -10 -2 -17 5 -8 6 -12 15 -9 19 2 4 10 2 17 -5 8 -6 12 -15 9 -19z m2037
-678 c0 -5 -5 -10 -11 -10 -5 0 -7 5 -4 10 3 6 8 10 11 10 2 0 4 -4 4 -10z
m-3560 -1430 c0 -5 -2 -10 -4 -10 -3 0 -8 5 -11 10 -3 6 -1 10 4 10 6 0 11 -4
11 -10z"/>
<path d="M29140 27613 c-8 -2 -22 -7 -30 -10 -8 -3 -31 -8 -50 -10 -19 -2 -37
-9 -41 -14 -3 -6 -10 -9 -15 -8 -5 1 -11 1 -14 -1 -9 -3 -45 -9 -83 -13 -75
-8 -50 -19 28 -12 44 4 82 11 83 16 2 5 16 9 30 9 15 0 59 11 97 25 52 17 62
24 40 24 -16 0 -37 -3 -45 -6z"/>
<path d="M14176 34051 c-5 -8 18 -43 49 -77 20 -22 70 -80 109 -124 66 -78
149 -172 201 -230 28 -31 70 -80 95 -109 25 -29 50 -58 56 -65 34 -37 116
-130 159 -180 28 -33 57 -66 65 -75 9 -9 47 -52 85 -96 39 -44 75 -85 80 -91
6 -6 34 -38 63 -72 34 -38 59 -59 68 -55 19 7 18 29 -3 51 -27 27 -146 162
-179 202 -16 19 -36 42 -44 51 -8 8 -24 26 -35 40 -12 13 -41 47 -65 74 -25
28 -70 79 -100 114 -30 35 -62 71 -70 80 -15 15 -116 131 -176 200 -16 19 -36
41 -44 50 -9 9 -61 68 -115 131 -55 63 -115 132 -134 153 -34 36 -55 46 -65
28z"/>
<path d="M25870 33174 c-36 -6 -75 -14 -87 -18 -11 -4 -45 -11 -75 -16 -29 -5
-98 -19 -153 -31 -55 -12 -131 -28 -170 -35 -38 -8 -100 -21 -138 -29 -148
-32 -206 -43 -285 -58 -45 -9 -87 -19 -91 -22 -5 -3 -35 -9 -68 -14 -32 -6
-101 -19 -153 -31 -52 -11 -129 -27 -170 -36 -101 -20 -148 -29 -260 -54 -52
-11 -112 -23 -132 -27 -21 -3 -38 -8 -38 -11 0 -5 181 -245 325 -431 184 -238
664 -863 753 -981 31 -41 65 -84 75 -94 17 -20 17 -20 17 0 0 11 4 24 9 30 4
5 21 45 36 89 16 44 32 84 37 89 4 6 8 17 8 25 0 9 7 29 15 45 8 15 15 33 15
38 0 6 7 24 14 41 13 28 34 82 100 257 8 19 21 53 29 75 15 37 34 87 118 310
32 84 53 140 74 190 7 17 22 59 35 95 13 36 27 69 32 75 4 5 8 16 8 25 0 8 7
28 15 44 8 15 15 33 15 40 1 6 9 29 20 51 11 22 19 46 20 53 0 7 4 20 10 30
12 21 80 197 80 207 0 4 7 22 16 41 9 18 14 37 12 41 -1 4 -32 3 -68 -3z m-10
-73 c0 -10 -7 -32 -15 -47 -8 -16 -15 -36 -15 -44 0 -9 -4 -20 -9 -25 -4 -6
-21 -46 -36 -90 -16 -44 -32 -84 -37 -89 -4 -6 -8 -16 -8 -24 0 -8 -6 -28 -14
-45 -14 -31 -35 -85 -111 -287 -58 -151 -98 -256 -114 -295 -5 -11 -23 -60
-41 -110 -18 -49 -41 -109 -51 -132 -11 -23 -19 -45 -19 -49 0 -9 -68 -184
-79 -204 -5 -9 -12 -30 -15 -48 -4 -17 -12 -34 -17 -37 -5 -4 -9 -14 -9 -23
-1 -9 -9 -35 -20 -57 -11 -22 -19 -45 -20 -51 0 -19 -25 -64 -35 -64 -5 1 -42
44 -82 98 -39 53 -81 108 -92 122 -11 14 -122 158 -248 322 -125 163 -313 407
-418 543 -104 136 -198 258 -208 271 -18 24 -18 24 8 34 14 5 36 10 48 10 12
0 38 5 57 10 19 6 69 17 110 25 41 8 107 21 145 30 39 8 104 22 145 30 41 8
107 22 145 30 39 9 102 22 140 29 39 8 90 18 115 24 57 13 172 37 275 57 44 9
107 23 140 30 58 14 84 19 244 50 40 7 76 16 79 19 3 3 18 6 34 6 21 0 28 -5
28 -19z"/>
<path d="M20170 32619 c0 -5 5 -7 10 -4 6 3 10 8 10 11 0 2 -4 4 -10 4 -5 0
-10 -5 -10 -11z"/>
<path d="M29110 31860 c0 -6 13 -47 29 -93 32 -92 91 -208 146 -288 41 -60
150 -169 168 -169 192 2 657 -12 792 -24 268 -23 404 -50 580 -118 88 -34 198
-96 216 -122 11 -14 29 3 23 22 -15 46 -68 142 -101 183 -46 56 -174 154 -264
202 -110 58 -207 90 -489 156 -356 84 -453 108 -814 196 -147 36 -272 65 -277
65 -5 0 -9 -5 -9 -10z"/>
<path d="M38764 30803 c-15 -27 -54 -92 -87 -147 l-59 -98 11 -242 c6 -132 15
-356 21 -496 5 -140 15 -336 20 -435 6 -99 15 -313 20 -475 10 -317 20 -492
27 -500 8 -9 1759 4 1818 13 17 3 276 6 578 6 l547 1 0 478 c0 515 -8 814 -22
806 -4 -3 -8 1 -8 8 0 10 -3 9 -11 -2 -8 -11 -12 -12 -16 -2 -4 9 -86 12 -364
12 -238 0 -358 3 -354 10 3 6 1 10 -5 10 -6 0 -8 -10 -4 -27 6 -24 5 -26 -8
-16 -11 10 -17 10 -26 1 -7 -7 -12 -8 -12 -4 0 5 -15 -3 -34 -18 -19 -14 -37
-26 -40 -26 -3 0 -16 -9 -28 -20 -13 -10 -32 -25 -42 -33 -21 -16 -25 -10 50
-74 86 -72 121 -101 148 -125 17 -15 34 -28 39 -28 4 0 7 -7 7 -15 0 -8 6 -15
13 -15 6 -1 46 -30 87 -65 41 -36 78 -65 83 -65 4 0 7 -6 7 -14 0 -8 6 -17 13
-20 10 -5 10 -7 0 -12 -7 -3 -13 -10 -13 -14 0 -11 -169 -234 -181 -238 -5 -2
-9 -10 -9 -18 0 -35 -57 -2 -273 161 -128 96 -236 179 -242 183 -5 4 -28 21
-50 37 -22 17 -43 34 -47 39 -5 8 -43 -17 -153 -101 -5 -5 -21 -15 -35 -24
-14 -9 -35 -25 -47 -35 -11 -11 -31 -26 -43 -34 -12 -8 -89 -66 -170 -127 -82
-62 -155 -113 -162 -113 -15 0 -27 13 -88 96 -24 32 -48 64 -52 69 -30 36 -88
120 -88 127 0 15 155 156 182 167 5 2 24 17 42 35 18 17 45 42 62 56 16 14 58
49 94 80 63 53 80 70 80 80 0 3 -19 16 -41 30 -23 14 -56 37 -73 52 -18 16
-38 25 -48 22 -11 -3 -19 2 -23 16 -8 26 -29 26 -22 0 6 -23 -10 -26 -33 -5
-22 20 -850 27 -843 8 3 -7 -2 -13 -10 -13 -20 0 -23 59 -25 475 -2 378 -12
665 -23 665 -5 0 -20 -21 -35 -47z"/>
<path d="M28183 30501 c-27 -25 -113 -155 -113 -171 0 -6 -6 -24 -14 -38 -25
-50 -45 -137 -62 -270 l-17 -132 -68 -51 c-38 -28 -69 -53 -69 -55 0 -2 35 -3
78 -1 l77 2 7 -70 c9 -99 28 -204 39 -211 5 -3 9 -13 9 -22 0 -9 14 -44 30
-77 25 -49 29 -68 24 -102 -3 -24 -3 -43 1 -43 13 0 120 31 135 39 9 5 31 12
50 16 19 4 40 14 48 21 7 8 22 14 33 14 10 0 19 4 19 9 0 5 10 13 23 17 38 12
177 127 177 147 0 5 -19 -8 -42 -29 -24 -22 -61 -48 -83 -59 -22 -11 -43 -24
-46 -28 -4 -5 -15 -7 -25 -5 -16 3 -20 15 -24 73 l-5 70 -75 5 c-87 6 -107 14
-89 37 18 21 64 43 91 43 49 0 53 13 28 79 -12 34 -21 64 -18 66 7 8 183 -40
256 -69 34 -13 63 -21 63 -18 6 32 -25 171 -68 311 -40 127 -111 275 -171 355
-47 62 -122 136 -138 136 -7 0 -14 7 -18 15 -7 20 -18 19 -43 -4z"/>
<path d="M33459 30356 c-3 -3 -36 -10 -74 -16 -73 -11 -223 -78 -280 -125
l-29 -24 27 -25 c16 -15 35 -26 43 -26 7 0 14 -4 14 -10 0 -5 5 -10 12 -10 6
0 19 -6 27 -14 14 -13 21 -12 56 4 48 23 115 34 144 25 25 -8 61 -73 61 -110
0 -53 24 -104 54 -117 16 -6 41 -22 56 -35 l28 -23 11 78 c7 42 14 100 17 127
10 111 25 241 30 261 5 18 -1 23 -40 33 -44 11 -148 15 -157 7z"/>
<path d="M29738 30303 c-2 -18 0 -34 6 -37 7 -3 6 -5 -1 -5 -7 -1 -13 -7 -13
-13 -1 -7 -37 -39 -80 -71 -44 -33 -78 -62 -75 -67 2 -4 24 -4 47 1 24 4 60 8
81 9 l37 0 0 -48 c0 -127 29 -264 77 -355 8 -17 20 -67 25 -111 5 -44 13 -83
19 -86 10 -7 107 12 179 36 25 8 55 14 67 14 12 0 24 4 28 9 3 5 20 13 37 17
18 3 39 10 48 14 8 4 84 41 167 81 84 41 153 77 153 82 0 4 -17 0 -37 -9 -21
-9 -65 -26 -98 -38 -33 -12 -64 -24 -70 -28 -5 -3 -29 -9 -51 -13 l-41 -6 -9
108 -9 108 -61 -3 c-78 -5 -90 10 -43 50 19 15 44 31 57 34 28 8 28 14 -8 99
-17 38 -30 71 -30 74 0 6 158 -9 250 -25 122 -21 230 -50 333 -90 49 -18 91
-34 94 -34 10 0 -26 174 -46 225 -25 60 -22 60 -303 60 -141 0 -254 -3 -252
-7 3 -4 -9 -6 -26 -5 -16 1 -30 5 -30 8 0 3 -52 5 -115 4 -67 -2 -112 1 -109
6 3 5 -11 0 -30 -11 -20 -11 -36 -15 -36 -9 0 6 -7 9 -15 5 -8 -3 -15 -1 -15
4 0 5 -6 8 -12 6 -60 -19 -67 -17 -76 16 l-9 33 -5 -32z"/>
<path d="M32873 29981 c-27 -30 -106 -189 -153 -310 -31 -81 -10 -110 78 -111
17 0 32 -4 32 -10 0 -5 9 -10 19 -10 24 0 60 -45 68 -83 3 -16 13 -31 22 -35
17 -6 101 -68 136 -100 29 -26 76 -54 82 -49 12 13 18 123 11 203 -18 193
-107 380 -228 480 -19 16 -38 33 -41 37 -4 5 -15 -1 -26 -12z"/>
<path d="M35333 29978 c-31 -49 -451 -903 -447 -910 3 -4 13 -8 23 -8 14 0 72
107 245 456 124 250 224 460 221 465 -9 13 -32 11 -42 -3z"/>
<path d="M30558 29793 c7 -3 16 -2 19 1 4 3 -2 6 -13 5 -11 0 -14 -3 -6 -6z"/>
<path d="M8169 29551 c-110 -21 -251 -125 -299 -223 -48 -96 -62 -222 -36
-328 41 -165 186 -296 357 -320 226 -32 420 85 497 300 25 70 22 210 -6 284
-44 115 -117 196 -225 250 -62 31 -84 37 -157 41 -47 2 -106 0 -131 -4z"/>
<path d="M22160 28908 c-5 -13 -46 -117 -91 -233 -76 -198 -80 -210 -62 -223
10 -7 56 -36 103 -64 47 -27 169 -101 271 -164 102 -63 193 -114 201 -114 9 0
18 8 21 18 3 9 29 60 57 112 99 184 160 301 160 310 0 7 -270 171 -406 246
-27 15 -61 35 -76 45 -14 11 -29 19 -32 19 -3 0 -31 16 -63 35 -32 19 -61 35
-66 35 -4 0 -12 -10 -17 -22z"/>
<path d="M29095 28660 c-22 -5 -130 -20 -240 -35 -110 -14 -229 -30 -265 -36
-63 -11 -199 -7 -270 7 l-35 7 20 -23 c39 -44 128 -103 234 -154 l106 -51 120
0 c128 0 154 6 335 75 110 41 201 66 272 74 59 6 78 18 151 90 36 36 38 41 21
47 -26 10 -399 9 -449 -1z"/>
<path d="M39924 27425 c3 -38 9 -81 12 -95 4 -14 9 -169 11 -345 4 -278 -5
-550 -23 -715 -3 -29 17 20 55 135 34 99 65 188 71 197 5 10 10 26 10 35 0 10
7 31 15 47 8 15 15 36 15 45 0 9 6 28 14 42 7 14 16 43 20 65 5 21 11 44 16
49 4 6 10 27 14 48 4 21 15 53 25 70 20 35 29 37 131 19 56 -10 113 -31 163
-58 l27 -15 2 65 c1 36 2 76 2 88 1 18 -9 24 -69 40 -168 44 -193 52 -245 71
-30 12 -72 32 -93 45 -43 26 -109 107 -150 184 l-28 53 5 -70z"/>
<path d="M7710 27360 c-8 -5 -27 -10 -42 -10 -58 0 -207 -64 -281 -120 -114
-87 -195 -199 -250 -345 -27 -71 -30 -254 -18 -845 6 -272 15 -711 21 -975 6
-264 15 -619 21 -790 6 -170 15 -517 19 -770 18 -942 31 -1459 44 -1795 7
-190 14 -502 15 -695 1 -192 6 -433 11 -535 5 -102 14 -455 20 -785 6 -330 13
-611 16 -625 3 -14 12 -340 20 -725 20 -971 25 -1095 51 -1170 30 -87 54 -136
88 -183 21 -28 96 -102 104 -102 4 0 14 -12 21 -26 8 -14 32 -36 54 -47 123
-68 164 -87 189 -87 15 0 47 -8 70 -19 41 -18 229 -19 8052 -23 6500 -4 8020
-2 8065 8 252 59 449 251 518 504 17 60 23 127 31 337 5 145 12 267 16 273 3
5 42 -26 86 -70 44 -43 89 -82 99 -85 11 -4 20 -13 20 -21 0 -8 5 -14 10 -14
6 0 10 8 10 18 0 16 6 18 53 11 53 -7 71 -4 50 9 -7 4 -16 19 -21 32 -6 14
-37 61 -71 105 -78 103 -65 87 -150 188 -44 52 -76 100 -80 119 -3 18 -3 110
0 203 4 94 7 216 8 273 1 81 4 102 15 102 8 0 16 -4 18 -9 2 -5 28 -36 58 -69
99 -107 140 -153 140 -158 0 -2 8 -13 18 -23 20 -22 22 -25 83 -106 25 -33 74
-105 110 -160 88 -137 88 -137 100 -165 5 -13 14 -27 18 -30 8 -5 171 -334
171 -345 0 -3 9 -27 21 -53 34 -78 36 -85 60 -147 12 -33 27 -73 34 -90 6 -16
20 -57 30 -90 10 -33 23 -76 30 -95 15 -39 81 -268 100 -345 38 -150 67 -254
80 -282 8 -17 15 -40 15 -51 0 -12 4 -23 9 -26 5 -3 12 -23 16 -43 6 -36 12
-56 48 -179 21 -69 73 -347 86 -460 6 -50 14 -167 19 -260 5 -129 8 -155 13
-109 l6 60 1 -67 c1 -38 6 -68 12 -68 6 0 10 9 10 19 0 11 5 23 10 26 5 3 10
24 10 46 l0 39 299 0 c192 0 302 4 306 10 4 6 10 8 15 5 10 -6 24 31 15 44 -3
5 7 11 22 13 21 2 28 8 28 25 0 13 6 28 13 35 7 7 12 20 12 30 0 10 7 18 15
18 8 0 15 8 16 18 0 14 2 14 9 -3 6 -17 9 -14 15 18 4 21 15 43 25 50 10 7 25
36 34 65 8 29 24 64 35 78 11 14 23 42 27 63 3 20 17 52 29 71 13 19 29 55 35
80 7 25 20 56 30 71 11 14 24 48 31 75 6 27 19 56 29 65 10 8 24 42 31 75 7
32 23 75 35 94 12 19 26 58 29 85 4 28 18 67 31 88 14 21 29 60 34 87 5 28 18
62 29 78 11 15 25 55 30 90 6 34 19 76 31 92 11 16 26 58 32 92 5 35 20 81 33
103 13 23 25 68 29 104 5 39 17 81 31 105 16 28 26 65 31 116 4 47 16 93 30
122 13 26 24 56 24 67 0 28 28 34 41 8 15 -27 29 -41 57 -56 12 -6 22 -16 22
-22 0 -6 14 -24 30 -39 23 -21 30 -37 30 -64 0 -26 5 -38 18 -43 30 -11 52
-35 52 -59 0 -15 9 -27 27 -36 16 -8 30 -25 35 -44 4 -17 19 -36 33 -44 20
-11 25 -21 25 -52 0 -28 5 -40 18 -45 9 -3 24 -14 32 -24 15 -18 16 -18 40 4
48 45 249 197 259 197 6 0 11 5 11 10 0 6 8 14 18 17 9 4 31 20 47 35 17 15
35 28 41 28 15 0 25 26 18 44 -3 8 -11 13 -19 10 -22 -9 -25 33 -23 316 l3
275 2 -245 c2 -142 7 -248 13 -254 6 -6 10 -25 10 -43 0 -28 3 -33 24 -33 23
0 24 3 19 38 -3 20 -12 41 -20 45 -10 6 -13 61 -13 269 0 225 2 259 15 255 8
-4 17 -2 20 3 8 13 3 13 -145 -10 -70 -11 -161 -24 -202 -30 -82 -11 -193 -30
-313 -55 -44 -9 -109 -22 -145 -29 -36 -7 -85 -19 -110 -25 -98 -27 -110 -29
-115 -21 -5 8 -66 597 -79 760 -3 36 -10 112 -15 170 -6 58 -13 132 -15 165
-2 33 -9 107 -15 165 -6 58 -12 132 -15 165 -2 33 -8 105 -14 160 -17 158 -33
336 -47 520 -7 94 -15 184 -18 200 -3 17 -8 80 -11 140 -11 182 -18 255 -26
255 -4 0 -17 -35 -30 -77 -12 -43 -33 -109 -45 -148 -13 -38 -38 -118 -56
-177 -18 -60 -36 -108 -40 -108 -27 0 -434 558 -579 793 -30 49 -85 137 -122
195 -37 59 -72 116 -78 127 -6 11 -19 34 -30 50 -11 17 -26 41 -33 55 -6 14
-37 68 -68 120 -31 52 -70 120 -86 150 -97 176 -150 274 -190 355 -51 101 -51
101 -59 92 -14 -14 -53 -181 -90 -387 -9 -47 -22 -121 -30 -165 -20 -108 -40
-221 -58 -333 -8 -51 -17 -96 -20 -100 -7 -12 -36 -253 -36 -302 0 -22 -8 -55
-17 -73 -17 -34 -42 -174 -43 -242 0 -22 -8 -53 -18 -70 -12 -19 -23 -71 -32
-140 -7 -60 -22 -134 -32 -163 -11 -29 -25 -101 -33 -160 -7 -63 -21 -123 -33
-147 -11 -22 -24 -79 -30 -127 -6 -59 -16 -96 -30 -116 -14 -19 -23 -53 -28
-98 -5 -50 -13 -78 -30 -101 -14 -18 -29 -55 -34 -84 -7 -35 -18 -57 -35 -71
-17 -13 -25 -29 -25 -50 0 -24 -6 -32 -30 -41 -21 -8 -30 -18 -30 -34 0 -23
-31 -63 -49 -63 -5 0 -12 -14 -16 -30 -4 -17 -15 -35 -26 -40 -10 -6 -29 -20
-42 -33 -58 -55 -141 -122 -153 -125 -11 -3 -14 13 -14 72 0 42 -4 76 -9 76
-5 0 -16 3 -25 6 -13 5 -16 -3 -16 -47 0 -60 -15 -389 -31 -664 -5 -99 -14
-342 -20 -540 -5 -206 -15 -390 -22 -430 -8 -41 -32 -109 -56 -160 -34 -70
-59 -104 -120 -164 -73 -73 -115 -99 -266 -167 -38 -17 -151 -19 -2200 -26
-1188 -4 -4808 -7 -8045 -5 -5656 2 -5887 3 -5935 20 -147 54 -261 134 -340
239 -51 68 -73 110 -106 203 -25 73 -33 250 -48 1025 -6 283 -15 650 -20 815
-11 305 -25 912 -41 1735 -4 250 -13 601 -19 780 -12 347 -26 957 -41 1760 -5
272 -14 603 -19 735 -6 132 -11 319 -11 415 0 96 -8 429 -16 740 -22 797 -28
1538 -13 1609 37 180 169 351 338 436 142 70 131 69 676 67 1562 -7 5360 -33
6240 -42 567 -7 1811 -16 2765 -20 2406 -13 3558 -27 3587 -46 15 -9 23 -10
25 -2 3 7 65 13 191 16 l187 4 0 -566 0 -566 548 -1 c301 -1 1112 -5 1802 -8
l1255 -6 -2 -180 c-2 -162 -25 -850 -68 -2040 -8 -231 -31 -874 -50 -1430 -19
-555 -42 -1192 -50 -1415 -18 -490 -19 -713 -3 -686 30 52 38 125 39 371 1
138 5 313 9 390 5 77 13 284 19 460 5 176 14 415 20 530 11 210 23 581 41
1195 5 179 14 408 19 510 6 102 13 302 16 445 3 143 10 330 15 415 6 85 14
327 20 538 5 211 12 386 14 390 2 4 10 246 17 537 14 614 13 621 -58 764 -40
81 -61 110 -137 186 -71 70 -108 98 -166 126 -161 77 -106 72 -800 80 -344 4
-1480 12 -2525 18 -1045 5 -2388 15 -2985 20 -1059 11 -2778 22 -6330 41
-1717 10 -2500 15 -3580 25 -352 4 -540 2 -550 -5z m16434 -468 c27 -42 51
-84 53 -92 3 -10 -14 -31 -44 -56 -26 -21 -53 -43 -60 -49 -11 -10 -63 -50
-91 -71 -12 -9 4 -27 87 -99 55 -48 101 -92 101 -97 0 -5 -6 -16 -12 -23 -7
-7 -29 -36 -48 -64 -19 -28 -40 -51 -46 -51 -10 0 -243 175 -254 192 -3 4 -17
-3 -30 -15 -14 -13 -73 -60 -131 -104 l-106 -82 -51 68 c-29 37 -52 74 -51 82
0 8 36 43 80 79 44 36 88 74 99 84 21 21 27 14 -89 104 -76 59 -101 85 -101
103 0 11 7 22 15 25 8 4 15 11 15 17 0 21 75 127 90 127 8 0 41 -25 74 -55 32
-30 62 -55 66 -55 5 0 10 -4 12 -9 2 -4 25 -27 52 -50 l48 -42 47 38 c25 21
58 50 73 65 15 16 29 28 32 28 3 0 26 20 52 44 26 25 52 42 58 40 6 -3 33 -39
60 -82z"/>
<path d="M36985 26343 c-136 -43 -218 -157 -218 -303 1 -127 63 -225 178 -280
148 -71 331 -14 407 126 90 166 27 365 -138 441 -70 32 -159 38 -229 16z"/>
<path d="M19712 23940 c0 -76 -19 -153 -45 -188 -37 -47 -170 -72 -292 -54
-138 21 -200 33 -225 42 -14 5 -39 12 -57 15 l-32 6 24 -43 c35 -64 97 -181
151 -288 27 -52 52 -96 57 -98 4 -2 7 -10 7 -17 0 -7 7 -16 16 -19 8 -3 13 -9
11 -13 -3 -5 0 -19 5 -33 6 -17 11 -21 17 -12 6 10 76 13 321 12 239 0 316 2
328 12 13 11 14 9 8 -12 -6 -20 -5 -22 4 -8 23 36 5 43 -108 41 -387 -9 -560
-8 -550 5 8 9 86 12 329 12 269 0 319 2 319 14 0 14 -16 55 -59 148 -11 26
-21 51 -21 57 0 5 -6 22 -14 38 -28 55 -66 146 -97 228 -13 33 -27 64 -31 70
-4 5 -8 16 -8 25 -1 8 -9 33 -20 55 -11 22 -19 48 -20 57 0 9 -4 19 -9 23 -6
3 -9 -29 -9 -75z"/>
<path d="M38474 23590 c4 -14 10 -99 13 -190 8 -214 -13 -485 -58 -765 -6 -33
-14 -87 -19 -120 -6 -33 -14 -78 -20 -100 -5 -22 -23 -105 -40 -185 -28 -128
-55 -230 -106 -405 -8 -27 -19 -63 -23 -80 -12 -43 -41 -136 -51 -160 -4 -11
-31 -92 -60 -180 -29 -88 -88 -252 -131 -364 -44 -112 -77 -207 -74 -209 11
-12 179 98 265 174 188 164 360 366 533 625 31 48 62 101 68 118 6 17 15 31
20 31 5 0 7 11 3 25 -5 21 -3 25 17 26 13 0 18 3 12 6 -7 2 -13 16 -13 29 0
14 4 23 9 20 5 -4 7 3 4 14 -3 11 -9 20 -14 20 -5 0 -9 140 -8 318 0 174 3
311 6 305 7 -18 23 -16 23 2 0 9 -6 18 -14 21 -11 4 -14 27 -13 102 1 53 -2
104 -8 112 -5 8 -15 38 -22 65 -6 28 -16 70 -22 95 -13 51 -79 264 -92 295 -4
11 -11 31 -14 45 -4 14 -12 39 -20 55 -29 63 -45 103 -45 110 0 12 -82 144
-98 157 -14 11 -15 10 -8 -12z"/>
<path d="M28222 23265 c-8 -38 -20 -110 -27 -160 -7 -49 -16 -103 -20 -120 -5
-24 -20 -258 -25 -385 -1 -14 2 -96 5 -182 l7 -158 118 0 c100 0 119 -2 124
-16 6 -15 8 -15 26 1 15 13 17 22 9 42 -5 13 -9 38 -9 54 0 16 -4 29 -10 29
-5 0 -12 17 -15 38 -4 20 -11 48 -16 61 -6 14 -14 43 -19 65 -5 23 -18 84 -30
136 -45 198 -93 492 -102 625 -3 36 -4 34 -16 -30z m188 -945 c0 -6 -47 -10
-120 -10 -73 0 -120 4 -120 10 0 6 47 10 120 10 73 0 120 -4 120 -10z m17 -42
c-3 -8 -6 -5 -6 6 -1 11 2 17 5 13 3 -3 4 -12 1 -19z"/>
<path d="M40146 23038 c20 -24 31 -42 66 -109 12 -24 27 -39 39 -39 19 0 26
20 12 34 -4 3 -8 13 -9 22 -1 8 -15 25 -30 37 -16 12 -41 34 -56 49 -34 34
-49 37 -22 6z"/>
<path d="M40255 22840 c-3 -5 -1 -10 4 -10 6 0 11 5 11 10 0 6 -2 10 -4 10 -3
0 -8 -4 -11 -10z"/>
<path d="M40265 22800 c3 -5 8 -10 11 -10 2 0 4 5 4 10 0 6 -5 10 -11 10 -5 0
-7 -4 -4 -10z"/>
<path d="M40112 22125 c2 -474 4 -521 23 -505 9 8 15 8 20 0 3 -5 24 -10 45
-10 39 0 39 0 42 43 l3 42 47 3 c39 3 47 0 53 -17 4 -14 17 -20 51 -23 53 -4
91 11 72 30 -18 18 -2 26 52 26 48 0 62 8 40 21 -10 6 -90 123 -90 131 0 3
-19 35 -43 72 -24 37 -55 88 -70 113 -26 46 -229 451 -240 479 -3 8 -5 -174
-5 -405z"/>
<path d="M31318 22203 c7 -3 16 -2 19 1 4 3 -2 6 -13 5 -11 0 -14 -3 -6 -6z"/>
<path d="M45400 22100 c-8 -5 -35 -19 -60 -31 -66 -33 -111 -58 -145 -80 -16
-10 -37 -22 -45 -26 -34 -16 -208 -143 -305 -223 -35 -29 -218 -212 -255 -255
-44 -51 -115 -145 -137 -181 -82 -131 -93 -174 -93 -381 0 -218 54 -427 153
-587 19 -32 25 -39 67 -86 22 -25 40 -49 40 -53 0 -4 -8 -27 -18 -50 -10 -23
-26 -62 -36 -87 -10 -25 -24 -58 -32 -73 -8 -16 -14 -33 -14 -39 0 -5 -6 -24
-14 -41 -17 -39 -36 -97 -32 -97 2 0 17 7 32 15 16 8 36 15 44 15 9 0 20 4 26
10 15 15 134 25 134 11 0 -7 20 -11 53 -11 30 0 89 -9 133 -20 73 -19 233 -78
244 -90 3 -4 24 -16 48 -28 48 -25 47 -24 116 -84 90 -79 183 -221 210 -318 4
-14 12 -35 18 -48 11 -21 13 -21 30 -5 10 9 18 20 18 25 0 5 11 25 23 46 13
20 43 73 67 117 24 44 50 91 58 105 7 14 23 43 35 65 l22 40 70 2 c95 3 234
24 265 40 14 7 29 13 35 13 25 0 239 117 306 168 111 84 249 228 249 260 0 8
6 28 14 45 18 44 35 110 47 182 5 33 13 67 18 75 5 9 12 72 16 140 4 69 12
131 17 138 21 25 -9 419 -46 612 -31 161 -28 156 -125 203 -47 22 -100 46
-118 52 l-32 12 -31 -81 c-17 -45 -37 -94 -45 -109 -8 -16 -15 -36 -15 -46 0
-9 -6 -25 -14 -36 -7 -11 -17 -35 -21 -52 -3 -18 -11 -33 -16 -33 -5 0 -9 -9
-9 -21 0 -12 -6 -35 -14 -52 -7 -18 -19 -45 -26 -62 -12 -27 -41 -104 -87
-230 -8 -22 -19 -44 -24 -50 -5 -5 -9 -16 -9 -25 0 -8 -6 -27 -14 -42 -8 -15
-17 -40 -21 -57 -4 -17 -11 -31 -16 -31 -5 0 -9 -10 -9 -23 0 -34 -25 -63 -73
-85 -167 -78 -295 -107 -468 -107 l-126 1 -49 49 c-63 63 -124 139 -124 154 0
6 -3 11 -8 11 -15 0 -122 225 -122 258 0 12 -4 23 -9 27 -6 3 -13 25 -16 49
-6 39 -3 52 29 106 20 33 36 63 36 65 0 2 14 27 30 55 17 28 47 81 66 118 20
37 47 85 59 107 12 22 39 72 60 110 20 39 41 75 45 80 4 6 27 46 50 90 73 135
91 168 117 213 25 42 25 43 7 57 -11 8 -23 15 -27 15 -6 0 -145 64 -187 85 -3
1 -12 -1 -20 -5z m-765 -1870 c3 -5 1 -10 -4 -10 -6 0 -11 5 -11 10 0 6 2 10
4 10 3 0 8 -4 11 -10z m55 -62 c0 -18 -2 -20 -9 -8 -6 8 -7 18 -5 22 9 14 14
9 14 -14z m72 -35 c21 -9 38 -20 38 -24 0 -17 -22 -20 -38 -6 -9 7 -25 17 -34
20 -17 6 -26 27 -11 27 3 0 24 -8 45 -17z m142 -78 c-7 -18 7 -20 24 -3 9 9
12 9 12 1 0 -7 10 -15 22 -19 18 -5 19 -8 5 -15 -10 -6 -14 -16 -10 -26 4 -11
3 -14 -5 -9 -7 4 -12 17 -12 29 0 18 -2 19 -11 7 -7 -10 -12 -11 -15 -4 -3 7
-14 10 -24 7 -11 -3 -20 0 -20 6 0 6 -7 11 -15 11 -8 0 -15 7 -15 15 0 10 11
15 35 15 26 0 33 -3 29 -15z m144 -64 c26 -13 76 -34 87 -36 32 -6 55 -19 55
-31 0 -8 11 -14 26 -14 29 0 77 -22 146 -69 16 -10 26 -20 23 -23 -3 -2 14 -4
37 -4 25 0 43 -5 46 -13 2 -7 15 -17 29 -22 16 -6 23 -14 19 -24 -3 -9 0 -15
8 -15 8 0 16 6 19 13 3 8 13 6 35 -10 17 -13 36 -23 42 -23 6 0 24 -7 40 -15
22 -11 29 -12 33 -2 3 8 12 5 27 -9 l22 -22 -48 6 c-27 3 -54 12 -60 20 -6 8
-25 15 -43 14 -17 0 -31 4 -31 9 0 5 -10 9 -22 9 -13 0 -36 7 -52 15 -15 8
-36 15 -46 15 -9 0 -29 9 -44 21 -14 11 -30 18 -36 14 -11 -7 -80 23 -80 34 0
4 7 8 15 8 8 0 15 -5 15 -10 0 -6 3 -8 6 -5 3 3 -1 15 -8 27 -10 16 -23 21
-55 21 -31 0 -46 5 -57 21 -8 12 -19 18 -25 14 -17 -10 -13 -23 10 -30 11 -4
18 -9 16 -12 -13 -12 -52 24 -52 47 0 22 -5 25 -45 28 -46 3 -80 24 -80 49 0
15 4 16 28 4z m-14 -47 c5 -14 4 -15 -9 -4 -17 14 -19 20 -6 20 5 0 12 -7 15
-16z"/>
<path d="M45340 19832 c0 -12 19 -26 26 -19 2 2 -2 10 -11 17 -9 8 -15 8 -15
2z"/>
<path d="M45420 19801 c0 -6 5 -13 10 -16 6 -3 10 1 10 9 0 9 -4 16 -10 16 -5
0 -10 -4 -10 -9z"/>
<path d="M31275 22070 c-3 -5 -1 -10 4 -10 6 0 11 5 11 10 0 6 -2 10 -4 10 -3
0 -8 -4 -11 -10z"/>
<path d="M40575 21690 c3 -5 8 -10 11 -10 2 0 4 5 4 10 0 6 -5 10 -11 10 -5 0
-7 -4 -4 -10z"/>
<path d="M40430 21629 c0 -5 5 -7 10 -4 6 3 10 8 10 11 0 2 -4 4 -10 4 -5 0
-10 -5 -10 -11z"/>
<path d="M40188 21573 c12 -2 30 -2 40 0 9 3 -1 5 -23 4 -22 0 -30 -2 -17 -4z"/>
<path d="M39342 21216 c-45 -107 -85 -208 -88 -225 -4 -17 -10 -31 -14 -31 -5
0 -6 -13 -4 -28 3 -15 -3 -59 -11 -97 -31 -133 -43 -190 -54 -250 -7 -33 -16
-80 -21 -105 -6 -25 -15 -92 -20 -150 -6 -58 -14 -130 -18 -160 -4 -30 -6
-181 -6 -335 1 -272 3 -296 42 -548 5 -33 15 -63 23 -68 10 -6 10 -9 2 -9 -20
0 -15 -17 7 -23 13 -3 20 0 20 9 0 10 14 14 54 14 30 0 57 -4 61 -9 5 -9 43
-7 100 4 13 3 20 13 21 29 2 23 -3 26 -48 32 -48 7 -49 8 -46 38 3 29 5 31 46
31 33 0 42 4 42 17 0 9 -5 20 -10 23 -6 4 -9 9 -6 13 2 4 -2 43 -10 87 -35
210 -43 278 -64 550 -29 373 8 996 76 1286 30 125 9 99 -74 -95z"/>
<path d="M33050 20709 c-682 -16 -1414 -44 -2050 -80 -201 -11 -403 -22 -450
-25 -47 -2 -139 -9 -205 -14 -145 -12 -387 -27 -550 -35 -66 -3 -131 -8 -145
-10 -14 -3 -142 -14 -285 -25 -328 -26 -675 -56 -875 -75 -85 -9 -207 -20
-270 -25 -63 -5 -131 -13 -150 -16 -19 -3 -100 -12 -180 -20 -161 -16 -281
-31 -287 -38 -2 -2 0 -37 6 -78 5 -40 13 -140 16 -223 3 -82 10 -193 15 -245
6 -52 14 -187 20 -300 5 -113 15 -256 22 -318 l11 -113 161 6 c89 4 217 11
286 16 69 5 217 14 330 19 113 5 284 14 380 20 146 8 637 31 1160 54 387 17
1365 47 2195 66 226 5 880 15 1455 21 755 8 1047 15 1052 23 4 6 7 328 5 716
l-2 705 -670 1 c-368 0 -816 -3 -995 -7z m1290 -236 c63 -17 120 -41 120 -51
0 -20 -77 -195 -88 -199 -7 -3 -38 4 -68 16 -76 29 -232 30 -257 3 -14 -15
-15 -21 -4 -35 12 -15 162 -57 207 -57 36 0 165 -59 192 -88 67 -71 83 -186
38 -276 -27 -53 -86 -109 -140 -133 -57 -25 -181 -52 -240 -53 -72 0 -242 33
-302 59 -53 22 -59 39 -34 94 8 18 26 58 39 90 25 54 42 68 63 48 5 -5 41 -19
79 -31 93 -30 223 -34 253 -6 17 14 19 22 10 36 -7 10 -23 21 -37 24 -14 3
-60 12 -101 21 -166 34 -237 66 -284 128 -57 74 -57 201 0 286 47 72 173 136
284 145 74 5 211 -5 270 -21z m-625 -114 c4 -61 4 -114 0 -117 -4 -4 -59 -9
-123 -12 l-117 -5 0 -80 c0 -44 5 -179 9 -300 8 -193 7 -222 -6 -233 -12 -9
-53 -12 -149 -10 l-134 3 -10 305 -10 305 -123 0 -122 0 0 33 c0 17 -3 32 -8
32 -4 0 -43 -36 -87 -80 -44 -44 -82 -80 -85 -80 -3 0 -29 17 -57 39 -85 64
-193 64 -259 0 -45 -43 -57 -86 -52 -175 4 -59 10 -80 31 -108 38 -49 107 -80
163 -72 53 7 111 35 143 70 14 14 29 26 34 26 15 0 187 -142 187 -155 0 -15
-77 -88 -125 -117 -77 -47 -140 -62 -270 -62 -100 -1 -129 3 -177 21 -165 64
-266 186 -289 348 -41 294 165 514 482 515 124 0 208 -28 307 -101 l52 -40 0
65 0 64 48 7 c26 4 193 11 372 15 179 3 335 7 346 8 20 2 22 -4 29 -109z
m-1737 -65 l3 -111 -83 -6 c-46 -4 -119 -7 -163 -7 -122 0 -155 -8 -155 -35 0
-51 -1 -50 184 -47 l174 3 7 -53 c4 -29 5 -75 3 -103 l-3 -50 -145 -12 c-80
-6 -157 -12 -172 -12 -26 -1 -28 -4 -28 -47 l0 -46 210 7 210 7 0 -95 c0 -52
2 -102 5 -110 5 -11 -25 -16 -167 -26 -95 -7 -256 -13 -358 -14 l-185 -2 -7
120 c-7 122 -29 607 -32 680 l-1 40 100 8 c113 9 499 25 560 23 l40 -1 3 -111z
m-815 -41 c4 -65 11 -192 17 -283 14 -229 -1 -309 -74 -385 -116 -121 -365
-140 -522 -40 -29 18 -55 38 -58 44 -4 6 25 53 65 106 65 87 92 110 101 86 2
-5 21 -20 42 -35 50 -34 95 -34 131 0 l28 26 -6 131 c-4 73 -10 153 -13 180
l-7 47 -61 0 c-33 0 -95 -5 -136 -10 -41 -6 -77 -7 -81 -2 -4 4 -9 54 -10 112
l-4 104 49 9 c66 11 275 24 417 26 l116 1 6 -117z m-948 59 c74 -21 129 -54
190 -116 33 -33 68 -77 77 -96 9 -19 22 -48 29 -64 10 -19 14 -69 14 -150 0
-117 -1 -123 -33 -187 -40 -80 -90 -135 -163 -182 -151 -95 -375 -105 -537
-22 -42 21 -162 133 -162 150 0 7 -7 18 -15 25 -8 7 -15 20 -15 29 0 9 -7 30
-16 46 -25 46 -24 215 1 280 24 64 74 141 119 183 40 38 160 102 191 102 11 0
27 5 35 10 19 13 232 7 285 -8z m-910 -85 c17 -9 35 -17 42 -17 19 0 97 -82
123 -130 21 -39 24 -58 24 -145 0 -84 -4 -107 -22 -141 -24 -44 -49 -74 -82
-97 -21 -15 -21 -16 -3 -44 10 -15 23 -32 29 -38 6 -5 39 -48 74 -93 43 -58
59 -87 52 -94 -6 -6 -80 -13 -166 -16 -140 -4 -156 -3 -156 12 0 9 -4 16 -9
16 -4 0 -21 19 -37 42 -16 23 -41 55 -56 72 -16 17 -28 34 -28 38 0 5 -16 8
-35 8 l-35 0 0 -70 c0 -39 6 -79 12 -90 10 -15 10 -25 2 -38 -9 -14 -34 -18
-149 -25 -108 -6 -142 -5 -151 5 -9 9 -15 76 -19 208 -4 107 -11 200 -16 206
-5 6 -11 91 -14 190 -3 98 -8 191 -10 206 -3 18 1 28 13 33 28 12 247 23 422
21 133 -2 171 -6 195 -19z m-875 -65 c101 -46 180 -147 180 -229 0 -21 5 -44
12 -51 8 -8 8 -15 1 -24 -6 -7 -13 -36 -15 -65 -13 -137 -176 -247 -387 -261
l-83 -5 8 -71 c13 -126 13 -130 -21 -137 -46 -10 -273 -10 -279 0 -3 5 -9 89
-12 187 -4 99 -11 184 -16 190 -5 7 -11 93 -15 193 -3 99 -10 181 -15 181 -4
0 -8 17 -8 39 0 52 18 58 210 70 236 14 385 9 440 -17z"/>
<path d="M29975 20071 c-31 -13 -75 -62 -91 -99 -8 -19 -14 -59 -14 -89 0 -82
39 -147 112 -184 47 -24 84 -24 134 1 58 29 72 42 94 91 38 85 18 189 -49 253
-26 25 -39 29 -98 32 -37 2 -77 0 -88 -5z"/>
<path d="M28997 20003 c-11 -10 -8 -92 4 -132 l11 -37 62 4 c38 3 71 12 89 24
23 17 27 26 27 68 0 66 -21 80 -116 80 -39 0 -74 -3 -77 -7z"/>
<path d="M28148 19943 c-43 -5 -43 -5 -32 -112 7 -60 7 -61 38 -61 100 0 156
34 156 93 0 69 -50 94 -162 80z"/>
<path d="M42411 20371 c0 -8 -26 -52 -56 -97 -30 -46 -55 -86 -55 -89 0 -16
39 18 55 49 11 20 23 36 27 36 5 0 8 8 8 18 0 10 7 28 16 40 8 12 13 30 11 40
-3 11 -5 12 -6 3z"/>
<path d="M38610 20348 c-19 -13 -36 -26 -38 -30 -2 -5 -8 -8 -13 -8 -13 0
-353 -202 -357 -212 -2 -4 -8 -8 -13 -8 -6 0 -47 -22 -92 -48 -45 -27 -89 -51
-97 -55 -8 -4 -28 -16 -45 -27 -16 -11 -39 -24 -50 -30 -11 -6 -33 -19 -50
-29 -16 -11 -46 -28 -65 -38 -19 -11 -56 -32 -82 -46 -27 -15 -48 -25 -48 -22
0 4 -17 -7 -37 -24 l-38 -31 -3 217 c-1 119 -7 222 -12 228 -6 7 -6 15 0 21 6
6 6 15 0 24 -7 10 -10 11 -10 3 0 -7 -5 -13 -11 -13 -12 0 -2 61 11 70 12 8
18 70 6 70 -12 0 -83 -55 -275 -211 -31 -25 -171 -137 -311 -249 -140 -113
-260 -209 -266 -215 -6 -5 -42 -34 -80 -64 -38 -30 -105 -97 -149 -149 -277
-326 -585 -579 -975 -801 -120 -69 -481 -241 -590 -281 -200 -75 -295 -112
-305 -120 -5 -4 -28 -11 -50 -15 -22 -4 -46 -11 -53 -17 -6 -6 -26 -8 -43 -4
-18 3 -28 2 -24 -4 3 -6 -3 -10 -14 -10 -12 0 -21 -4 -21 -9 0 -5 -17 -9 -37
-9 -21 0 -49 -3 -63 -6 -21 -5 -22 -5 -5 3 19 9 19 10 -2 10 -12 1 -23 -6 -25
-15 -2 -11 -15 -18 -38 -20 -19 -1 -49 -6 -67 -9 -29 -6 -33 -4 -39 19 -3 14
-3 42 0 61 6 29 4 34 -9 29 -8 -3 -15 -1 -15 5 0 6 -12 11 -27 11 l-28 -1 28
-17 c36 -22 34 -32 -8 -30 -30 1 -35 5 -35 25 0 21 -4 23 -55 23 -30 0 -55 -4
-55 -10 0 -5 -7 -10 -15 -10 -8 0 -15 3 -15 8 0 4 -129 3 -287 -1 -281 -8
-2418 -2 -2678 8 -189 7 -104 -12 115 -25 96 -6 202 -15 235 -20 33 -6 94 -10
135 -10 41 -1 107 -5 145 -10 39 -5 147 -14 240 -20 94 -6 181 -14 195 -19 14
-5 88 -12 164 -15 76 -3 144 -10 150 -15 6 -4 63 -11 126 -14 63 -3 153 -10
200 -16 47 -6 171 -22 275 -36 105 -13 285 -37 400 -54 184 -26 277 -41 516
-81 247 -42 655 -159 834 -239 199 -89 349 -171 430 -235 21 -17 48 -35 59
-41 11 -5 39 -34 63 -64 48 -58 47 -48 17 -181 -70 -306 -156 -575 -271 -850
-81 -193 -242 -512 -318 -626 -11 -17 -36 -57 -55 -89 -19 -32 -97 -140 -172
-241 -81 -109 -132 -184 -123 -184 15 0 22 -20 8 -20 -19 -1 -33 -18 -27 -33
5 -15 8 -14 23 6 25 32 32 55 18 60 -7 2 1 2 16 0 22 -4 30 0 34 16 3 12 12
21 19 21 8 0 14 4 14 9 0 14 59 41 66 30 10 -16 26 -10 22 9 -5 17 13 42 29
43 15 0 143 81 143 90 0 5 6 9 13 9 8 0 33 14 55 30 23 17 44 30 46 30 5 0
150 101 173 120 7 6 15 10 18 10 6 0 65 39 75 50 3 3 32 23 65 45 33 22 64 43
70 48 5 4 62 46 125 94 199 149 317 245 338 275 7 10 18 18 23 18 26 0 287
241 429 397 154 168 291 364 352 500 24 55 45 165 58 303 4 52 13 145 19 205
28 275 33 336 51 585 11 146 20 290 20 322 0 54 2 59 63 131 34 42 67 76 73
76 6 1 22 -23 34 -51 35 -84 128 -282 233 -498 97 -201 212 -433 269 -540 25
-47 67 -125 93 -175 26 -49 60 -112 75 -140 15 -27 45 -81 65 -120 21 -38 49
-87 62 -108 13 -21 28 -48 34 -60 5 -12 15 -31 22 -42 7 -11 50 -85 97 -164
47 -78 92 -153 100 -166 8 -13 34 -54 58 -92 74 -116 115 -179 170 -259 80
-115 95 -136 114 -158 10 -11 30 -38 45 -60 15 -23 34 -45 40 -49 7 -4 13 -14
13 -22 0 -7 4 -15 9 -17 5 -1 26 -23 46 -48 125 -150 220 -254 414 -452 74
-76 139 -138 143 -138 5 0 -35 49 -89 108 -129 142 -219 258 -310 400 -69 108
-170 303 -188 362 -4 14 -11 30 -15 35 -5 6 -11 27 -15 48 -4 20 -11 37 -15
37 -4 0 -11 20 -14 45 -4 24 -11 47 -15 50 -5 2 -12 33 -15 67 -4 35 -11 67
-16 73 -9 12 -17 118 -26 339 l-7 158 44 -3 44 -4 6 203 c4 127 11 208 18 215
6 6 11 36 12 66 0 31 4 79 10 106 5 28 16 95 24 150 8 55 21 136 30 180 9 44
22 112 30 150 13 70 27 139 47 225 19 80 39 174 48 225 5 27 14 61 19 75 5 14
19 70 31 125 12 55 25 111 30 125 7 22 24 94 65 275 19 86 35 296 55 730 6
121 14 276 19 345 5 69 7 128 4 133 -7 12 -26 8 -63 -15z m-1144 -416 c-12
-11 -18 7 -10 30 l8 23 4 -23 c2 -13 1 -26 -2 -30z m24 -248 c0 -2 -7 -4 -15
-4 -8 0 -15 4 -15 10 0 5 7 7 15 4 8 -4 15 -8 15 -10z m-3390 -1524 c0 -5 -2
-10 -4 -10 -3 0 -8 5 -11 10 -3 6 -1 10 4 10 6 0 11 -4 11 -10z m4097 -1102
c-3 -7 -5 -2 -5 12 0 14 2 19 5 13 2 -7 2 -19 0 -25z"/>
<path d="M24575 19877 c-8 -293 -9 -330 -21 -629 -7 -194 -4 -220 23 -185 14
16 28 1073 15 1081 -6 3 -12 -103 -17 -267z"/>
<path d="M37645 19820 c-3 -5 -1 -10 4 -10 6 0 11 5 11 10 0 6 -2 10 -4 10 -3
0 -8 -4 -11 -10z"/>
<path d="M44674 19773 c-3 -10 -10 -27 -14 -38 -30 -68 -48 -114 -60 -145 -36
-97 -102 -256 -126 -303 -8 -16 -14 -36 -14 -46 0 -9 -6 -25 -13 -36 -7 -11
-19 -40 -27 -65 -7 -25 -17 -49 -21 -55 -4 -5 -10 -26 -14 -45 -4 -19 -12 -41
-19 -49 -9 -12 -7 -13 8 -8 12 5 23 3 28 -5 6 -10 10 -7 14 10 4 12 10 22 15
22 5 0 9 7 9 16 0 9 6 28 14 42 21 42 51 109 91 207 20 50 45 108 54 130 10
22 26 60 35 85 25 62 32 78 55 132 12 26 21 51 21 55 0 4 4 14 8 20 12 19 133
-7 247 -52 119 -48 305 -157 352 -207 l22 -23 -158 -315 c-174 -347 -180 -360
-157 -360 18 0 22 -25 6 -35 -15 -9 -12 -25 3 -20 19 8 158 249 323 561 24 45
52 97 63 115 12 19 21 44 21 56 0 21 -75 106 -141 159 -29 24 -164 104 -174
104 -4 0 -18 9 -32 20 -14 11 -30 17 -35 14 -5 -3 -14 -1 -21 4 -36 31 -208
72 -298 72 -48 0 -61 -3 -65 -17z m-264 -753 c0 -5 -2 -10 -4 -10 -3 0 -8 5
-11 10 -3 6 -1 10 4 10 6 0 11 -4 11 -10z"/>
<path d="M21798 18951 c-5 -172 -11 -278 -18 -286 -8 -10 -5 -17 12 -29 13 -9
26 -12 31 -7 5 5 9 47 9 93 0 74 -19 431 -25 483 -2 11 -6 -103 -9 -254z m9
-273 c-3 -7 -5 -2 -5 12 0 14 2 19 5 13 2 -7 2 -19 0 -25z"/>
<path d="M39446 19193 c-11 -11 -6 -23 9 -23 8 0 15 4 15 9 0 13 -16 22 -24
14z"/>
<path d="M39360 19154 c0 -21 4 -33 10 -29 6 3 10 19 10 36 0 16 -4 29 -10 29
-5 0 -10 -16 -10 -36z"/>
<path d="M39181 19108 c9 -54 19 -75 19 -40 0 15 6 22 19 22 10 0 24 7 31 15
11 13 8 15 -14 15 -15 0 -29 6 -32 14 -3 8 -11 17 -18 19 -10 4 -11 -6 -5 -45z"/>
<path d="M39450 19076 c0 -9 7 -12 21 -9 16 4 17 8 7 14 -19 13 -28 11 -28 -5z"/>
<path d="M39220 19071 c0 -9 109 -3 119 5 2 2 -23 4 -57 4 -34 0 -62 -4 -62
-9z"/>
<path d="M44992 18710 c0 -14 2 -19 5 -12 2 6 2 18 0 25 -3 6 -5 1 -5 -13z"/>
<path d="M21782 18599 c2 -6 8 -10 13 -10 5 0 11 4 13 10 2 6 -4 11 -13 11 -9
0 -15 -5 -13 -11z"/>
<path d="M21782 18557 c-12 -14 -12 -19 1 -32 18 -17 57 -20 57 -4 0 6 -9 13
-19 16 -11 3 -21 12 -23 21 -3 13 -5 13 -16 -1z"/>
<path d="M21810 18560 c0 -6 7 -10 15 -10 8 0 15 2 15 4 0 2 -7 6 -15 10 -8 3
-15 1 -15 -4z"/>
<path d="M30613 18293 c15 -2 39 -2 55 0 15 2 2 4 -28 4 -30 0 -43 -2 -27 -4z"/>
<path d="M34380 18229 c0 -5 5 -7 10 -4 6 3 10 8 10 11 0 2 -4 4 -10 4 -5 0
-10 -5 -10 -11z"/>
<path d="M34250 18199 c0 -5 5 -7 10 -4 6 3 10 8 10 11 0 2 -4 4 -10 4 -5 0
-10 -5 -10 -11z"/>
<path d="M24913 17633 c-18 -7 -16 -23 2 -23 8 0 15 7 15 15 0 8 -1 15 -2 14
-2 0 -9 -3 -15 -6z"/>
<path d="M24910 17590 c0 -5 5 -10 10 -10 6 0 10 5 10 10 0 6 -4 10 -10 10 -5
0 -10 -4 -10 -10z"/>
<path d="M24940 17570 c-8 -5 -12 -10 -10 -12 47 -30 61 -29 37 4 -9 11 -18
14 -27 8z"/>
<path d="M43678 16393 c-201 -51 -370 -174 -474 -347 -19 -31 -34 -60 -34 -64
0 -4 -7 -20 -15 -36 -9 -16 -20 -46 -25 -65 -5 -20 -14 -56 -21 -81 -15 -54
-14 -212 1 -570 6 -146 22 -627 35 -1070 13 -443 30 -985 36 -1206 7 -220 9
-408 6 -418 -7 -18 -140 -19 -4170 -12 -2289 4 -4193 7 -4232 6 -38 0 -96 -8
-127 -17 -32 -8 -67 -13 -78 -10 -11 3 -18 2 -16 -2 3 -4 -10 -14 -29 -23 -19
-8 -32 -11 -29 -7 3 5 5 114 4 242 -1 217 -2 233 -20 252 -19 18 -20 18 -20 1
0 -12 -5 -16 -15 -12 -8 3 -15 1 -15 -4 0 -6 9 -10 20 -10 25 0 27 -20 3 -20
-17 -1 -17 -2 1 -15 17 -13 18 -29 17 -217 -2 -186 -4 -205 -22 -224 -10 -11
-18 -23 -17 -25 2 -3 -5 4 -15 14 -15 17 -28 19 -98 15 l-80 -5 3 178 c2 141
0 175 -9 167 -7 -6 -13 -17 -13 -25 0 -7 -6 -13 -12 -11 -7 1 -23 -2 -36 -6
-19 -6 -21 -10 -11 -22 6 -8 9 -18 5 -21 -4 -4 -11 -2 -15 5 -8 14 -37 7 -59
-15 -7 -7 -20 -13 -27 -13 -8 0 -12 -6 -9 -13 3 -8 -1 -14 -8 -14 -8 0 -40
-16 -71 -36 -32 -20 -59 -37 -62 -37 -2 0 -38 -20 -78 -45 -41 -25 -79 -45
-85 -45 -6 0 -12 -4 -14 -8 -6 -15 -320 -182 -343 -182 -8 0 -15 -4 -15 -10 0
-5 -5 -10 -12 -10 -6 0 -45 -16 -87 -36 -143 -69 -228 -104 -252 -104 -11 0
-19 -4 -19 -9 0 -5 -15 -13 -32 -16 -18 -4 -42 -14 -53 -21 -11 -8 -32 -14
-46 -14 -15 0 -29 -4 -31 -8 -4 -11 -310 -110 -364 -119 -21 -3 -43 -9 -49
-13 -5 -5 -32 -11 -60 -15 -27 -4 -54 -11 -60 -15 -5 -4 -41 -13 -80 -20 -38
-7 -104 -18 -145 -25 -74 -14 -132 -22 -300 -46 -124 -17 -662 -24 -795 -9
-61 6 -148 15 -195 20 -47 4 -112 13 -145 19 -33 6 -89 16 -125 22 -183 30
-455 96 -634 154 -43 14 -84 25 -90 25 -6 0 -24 7 -39 15 -15 8 -43 17 -63 21
-19 3 -37 10 -40 15 -3 5 -13 9 -22 9 -9 0 -28 6 -42 13 -14 7 -50 21 -80 31
-30 10 -68 24 -85 31 -16 8 -75 32 -130 55 -143 60 -420 197 -563 279 -67 39
-125 71 -129 71 -11 0 47 -68 115 -133 205 -199 539 -393 917 -534 22 -8 55
-21 73 -29 18 -8 39 -14 47 -14 7 0 26 -5 42 -12 53 -22 316 -96 418 -118 22
-4 83 -18 135 -30 263 -61 648 -113 1110 -152 179 -15 897 -14 1035 1 261 28
476 58 523 72 18 6 58 13 90 16 31 3 59 10 63 14 3 5 27 11 55 15 27 3 58 10
69 14 11 5 65 21 120 36 119 31 277 80 323 100 18 8 40 14 50 14 9 0 26 7 36
15 11 8 28 15 37 15 10 0 30 6 46 14 94 48 136 66 141 61 3 -3 0 -28 -7 -57
-26 -100 -28 -192 -16 -640 7 -249 9 -459 5 -467 -4 -7 -182 -102 -396 -210
-214 -108 -434 -223 -489 -255 -55 -33 -109 -64 -120 -70 -109 -60 -255 -186
-255 -220 1 -52 -2 -51 304 -49 169 1 292 6 303 12 10 6 70 15 133 20 100 8
195 20 478 59 59 8 63 8 67 -12 2 -12 9 -207 15 -435 10 -329 9 -415 -1 -421
-18 -12 -152 -30 -219 -30 -32 0 -60 -5 -62 -10 -2 -6 -56 -13 -123 -17 -66
-3 -123 -10 -126 -14 -3 -5 -68 -12 -145 -15 -76 -3 -148 -10 -159 -15 -11 -5
-105 -13 -210 -18 -104 -5 -215 -12 -245 -15 -153 -15 -389 -23 -940 -31 -298
-5 -1370 13 -1540 25 -80 6 -235 15 -345 20 -317 14 -847 55 -1145 89 -41 4
-78 5 -82 2 -10 -8 339 -89 587 -136 39 -7 97 -18 130 -24 33 -7 80 -16 105
-21 25 -5 63 -12 85 -15 22 -3 78 -12 125 -20 214 -35 401 -61 555 -75 55 -5
127 -14 160 -19 33 -6 105 -13 160 -16 55 -3 129 -10 165 -15 179 -27 1040
-53 1325 -40 251 12 653 29 735 31 30 1 60 5 65 10 6 4 78 10 160 14 83 4 161
11 175 16 14 5 79 13 145 18 66 6 145 14 175 20 30 5 83 10 117 10 34 1 63 5
65 10 2 5 44 14 93 20 50 5 118 15 153 22 37 7 67 8 72 3 10 -10 18 -349 8
-359 -9 -10 -357 -65 -408 -65 -26 0 -51 -5 -56 -10 -6 -6 -55 -13 -110 -17
-54 -3 -102 -10 -105 -15 -3 -4 -57 -11 -120 -14 -63 -4 -119 -10 -125 -15 -5
-4 -77 -13 -160 -19 -82 -5 -176 -14 -209 -19 -33 -5 -127 -12 -210 -15 -82
-4 -166 -9 -185 -12 -19 -2 -150 -8 -290 -12 -442 -12 -1120 6 -1390 38 -47 6
-139 15 -205 20 -66 6 -147 15 -180 20 -33 5 -98 14 -145 21 -276 36 -565 89
-825 150 -49 11 -106 24 -125 29 -42 9 -263 67 -305 80 -16 5 -84 26 -150 45
-120 37 -160 50 -236 82 -37 15 -49 31 -141 186 -55 93 -102 167 -104 164 -3
-2 0 -33 6 -68 11 -71 12 -205 2 -231 -6 -15 -75 -68 -88 -68 -3 0 -20 -11
-38 -25 -18 -14 -37 -25 -43 -25 -5 0 -18 -9 -28 -20 -10 -11 -24 -20 -30 -20
-7 0 -18 -7 -25 -15 -7 -8 -32 -24 -56 -35 -56 -24 -152 -96 -232 -174 -78
-76 -99 -132 -83 -223 6 -32 13 -74 16 -94 3 -20 17 -58 30 -85 l25 -49 -30
-65 c-17 -36 -44 -90 -59 -120 -16 -30 -32 -66 -36 -80 -4 -14 -17 -39 -30
-55 -12 -17 -26 -45 -30 -63 -3 -18 -17 -45 -30 -60 -12 -15 -26 -43 -30 -62
-4 -19 -20 -55 -36 -79 -16 -25 -29 -49 -29 -54 0 -10 -42 -101 -91 -198 -16
-31 -29 -63 -29 -70 0 -8 -13 -39 -30 -69 -16 -30 -29 -61 -30 -69 0 -8 -16
-49 -36 -90 -58 -122 -71 -153 -89 -206 -9 -27 -20 -54 -24 -60 -4 -5 -18 -39
-31 -75 -13 -36 -27 -69 -31 -75 -4 -5 -19 -49 -33 -97 -15 -48 -30 -88 -34
-90 -9 -3 -54 -121 -83 -218 -11 -36 -27 -78 -35 -93 -9 -15 -24 -56 -34 -91
-9 -34 -24 -75 -32 -92 -9 -16 -21 -54 -28 -84 -6 -30 -20 -66 -30 -80 -9 -14
-21 -41 -25 -60 -8 -41 -35 -121 -46 -135 -4 -5 -14 -41 -22 -80 -8 -38 -25
-88 -36 -110 -12 -21 -21 -46 -21 -55 -1 -8 -12 -46 -26 -85 -14 -38 -32 -101
-40 -139 -8 -39 -23 -84 -33 -102 -10 -17 -22 -47 -26 -65 -4 -19 -20 -72 -35
-119 -16 -47 -31 -102 -35 -124 -3 -21 -10 -46 -15 -55 -17 -32 -40 -102 -40
-121 0 -11 -13 -59 -29 -107 -16 -49 -32 -110 -36 -138 -5 -27 -18 -72 -30
-100 -12 -27 -25 -68 -29 -90 -4 -22 -18 -73 -32 -113 -13 -41 -28 -101 -34
-134 -5 -33 -13 -65 -18 -71 -5 -7 -16 -41 -25 -77 -8 -36 -20 -83 -25 -105
-6 -22 -19 -71 -30 -110 -11 -38 -23 -97 -27 -130 -4 -33 -13 -71 -20 -85 -8
-14 -21 -56 -30 -95 -9 -38 -23 -95 -30 -125 -33 -126 -45 -183 -45 -208 0
-15 -6 -39 -14 -54 -8 -14 -17 -46 -21 -70 -4 -24 -11 -56 -15 -73 -19 -62
-68 -292 -75 -345 -4 -30 -11 -63 -17 -73 -5 -9 -22 -81 -39 -160 -51 -245
-89 -428 -114 -557 -14 -69 -31 -156 -39 -195 -16 -77 -64 -336 -96 -515 -11
-63 -25 -137 -30 -165 -6 -27 -14 -81 -20 -120 -5 -38 -20 -135 -34 -215 -13
-80 -27 -169 -30 -197 l-5 -53 2343 0 2344 0 6 23 c3 12 9 58 12 102 4 48 13
93 24 112 12 21 22 72 30 150 7 74 18 133 30 158 11 22 25 74 31 115 11 79 34
173 44 190 4 6 13 64 20 130 8 67 22 134 31 152 10 18 23 62 30 98 7 36 19 94
28 130 9 36 23 103 31 148 8 46 23 109 34 140 10 32 24 89 31 127 6 39 22 106
35 150 13 44 27 114 31 155 4 47 15 92 29 120 13 25 28 78 34 119 7 40 20 100
31 132 11 32 24 87 29 122 5 35 18 82 30 104 11 23 25 71 31 109 6 38 15 73
19 79 11 15 39 131 46 195 3 30 17 78 29 105 13 28 26 70 30 95 4 25 17 77 30
115 13 39 27 95 31 125 4 30 13 66 20 80 22 41 35 91 45 168 5 39 18 91 29
115 11 23 24 77 30 120 7 49 18 88 31 106 14 17 26 58 34 112 7 46 20 99 30
118 10 18 22 60 26 92 5 31 17 70 29 86 11 15 27 63 36 107 8 43 22 90 30 105
7 15 20 62 28 104 8 42 21 87 30 100 8 13 23 52 32 88 10 35 24 76 31 90 7 14
20 66 29 115 9 49 25 103 35 119 10 17 25 69 33 117 9 48 23 98 31 110 8 13
20 54 26 93 6 40 19 78 29 90 20 22 29 60 41 177 5 50 14 86 27 105 12 15 26
54 32 85 7 31 18 62 26 68 8 6 21 33 30 60 19 57 36 74 95 95 24 8 49 20 57
26 21 18 308 13 361 -5 24 -9 79 -19 123 -22 117 -10 189 -50 229 -127 17 -32
30 -73 30 -90 0 -18 12 -54 26 -82 13 -28 29 -83 34 -125 11 -84 15 -98 40
-155 10 -22 21 -65 25 -95 4 -30 16 -72 26 -92 10 -20 25 -74 33 -121 8 -46
26 -114 41 -152 14 -37 25 -79 25 -94 0 -14 12 -53 25 -86 14 -33 30 -92 36
-132 5 -39 20 -98 33 -132 13 -33 27 -79 31 -103 4 -24 17 -72 30 -108 12 -36
26 -85 30 -110 3 -25 20 -84 36 -132 16 -48 29 -98 29 -110 0 -13 11 -45 23
-73 13 -27 29 -85 36 -129 7 -43 21 -93 31 -111 10 -17 23 -65 30 -105 7 -41
20 -86 30 -100 10 -14 23 -64 30 -114 7 -49 21 -104 32 -122 10 -17 23 -61 29
-95 6 -35 19 -79 30 -97 10 -18 21 -52 24 -75 15 -106 29 -173 45 -201 10 -17
23 -65 30 -106 7 -41 18 -82 25 -90 7 -8 21 -58 30 -110 9 -52 25 -113 35
-135 10 -22 24 -69 30 -104 6 -35 20 -80 30 -99 11 -19 22 -56 25 -81 12 -85
29 -156 42 -169 7 -7 15 -23 17 -35 21 -116 27 -139 40 -152 8 -8 17 -38 21
-67 12 -101 28 -173 41 -195 7 -12 20 -53 28 -91 8 -38 24 -90 35 -114 11 -24
23 -69 26 -99 9 -68 22 -126 40 -164 7 -16 16 -48 20 -70 4 -22 19 -83 35
-135 15 -52 37 -133 49 -180 34 -142 71 -273 85 -305 8 -16 17 -52 21 -79 4
-28 17 -79 30 -115 13 -36 27 -84 31 -106 4 -22 17 -60 29 -85 13 -25 26 -73
30 -107 l7 -63 2139 0 2139 0 -6 118 c-3 67 -1 166 6 232 19 181 24 430 10
492 -8 33 -15 212 -20 473 -7 368 -12 441 -33 590 -14 94 -29 217 -32 275 -5
66 -16 132 -31 179 -14 44 -24 98 -24 135 0 93 -18 239 -39 324 -10 43 -18 90
-17 106 1 26 6 30 51 42 41 11 642 13 3276 14 3193 0 3227 0 3270 20 24 11 56
20 70 20 14 0 34 9 44 20 10 11 25 20 34 20 22 0 120 51 155 80 142 120 236
261 284 425 9 28 13 224 15 660 3 471 7 630 16 660 20 60 39 484 50 1110 17
924 30 1512 41 1855 6 179 13 732 16 1230 4 711 8 925 19 1000 15 94 30 546
44 1255 3 187 9 345 13 351 4 7 22 15 40 19 18 5 755 11 1638 14 1472 6 1608
7 1637 23 18 9 47 20 65 23 18 4 44 16 57 26 13 11 28 19 33 19 17 0 101 63
149 111 55 56 138 176 161 234 55 136 55 138 77 830 6 187 16 446 21 575 6
129 15 404 20 610 6 206 12 386 14 400 3 14 10 228 15 475 6 248 14 489 17
536 6 86 -7 230 -28 299 -63 210 -249 410 -448 482 -136 50 17 47 -2810 50
l-2634 3 -88 -22z m5422 -49 c218 -51 404 -212 490 -423 59 -145 59 -119 19
-1211 -27 -767 -67 -1871 -74 -2105 -8 -218 -21 -319 -55 -408 -52 -139 -182
-286 -313 -356 -78 -41 -132 -59 -230 -76 -77 -13 -278 -15 -1565 -13 -812 1
-1512 3 -1554 5 -77 5 -78 5 -78 31 0 44 -28 152 -57 222 -95 233 -284 402
-539 483 -68 21 -76 21 -974 25 -498 1 -908 6 -912 10 -4 4 -21 446 -38 982
-16 536 -34 1083 -40 1215 -18 387 -28 964 -19 1039 11 89 22 123 72 221 32
61 62 101 132 170 100 101 186 152 310 185 67 17 170 18 2715 19 2338 1 2653
-1 2710 -15z m-14845 -3964 c-3 -5 -12 -10 -18 -10 -7 0 -6 4 3 10 19 12 23
12 15 0z m32 -66 c-3 -3 -12 -4 -19 -1 -8 3 -5 6 6 6 11 1 17 -2 13 -5z m8821
-1436 c13 -13 17 -183 6 -212 -6 -15 -240 -16 -2555 -16 l-2549 0 0 114 c0 82
4 116 13 119 6 3 1151 6 2542 6 1956 1 2534 -2 2543 -11z m10 -623 c2 -49 0
-100 -3 -112 l-5 -23 -1275 0 -1275 0 0 115 0 115 1278 -2 1277 -3 3 -90z
m-9098 -119 c0 -3 -4 -8 -10 -11 -5 -3 -10 -1 -10 4 0 6 5 11 10 11 6 0 10 -2
10 -4z m6272 -332 c2 -58 -1 -112 -5 -120 -7 -12 -156 -14 -1015 -14 -771 0
-1011 3 -1020 12 -13 13 -17 183 -6 212 6 14 105 16 1024 16 l1019 0 3 -106z
m2826 6 c2 -52 0 -105 -3 -118 l-5 -22 -1273 2 -1272 3 -3 118 -3 117 1278 -2
1278 -3 3 -95z m0 -440 c2 -52 0 -105 -3 -117 l-5 -23 -2048 0 c-1580 0 -2051
3 -2060 12 -13 13 -17 183 -6 212 6 15 194 16 2063 14 l2056 -3 3 -95z m-4
-356 c9 -23 7 -197 -2 -212 -7 -10 -161 -12 -738 -10 l-729 3 -3 118 -3 117
735 0 c660 0 734 -2 740 -16z m1 -544 l0 -115 -2289 -3 c-1825 -2 -2291 0
-2298 10 -9 15 -11 189 -2 212 6 15 215 16 2298 14 l2291 -3 0 -115z m0 -342
c3 -13 5 -66 3 -118 l-3 -95 -1767 -3 -1768 -2 0 114 c0 82 4 116 13 119 6 3
801 6 1764 6 l1753 1 5 -22z m-1757 -540 l3 -118 -1271 0 -1270 0 0 114 c0 82
4 116 13 119 6 3 577 5 1267 4 l1255 -2 3 -117z m1757 100 c3 -13 5 -66 3
-118 l-3 -95 -835 0 -835 0 -3 104 c-2 67 1 108 9 117 10 12 142 14 835 14
l824 0 5 -22z m0 -543 l0 -110 -1277 -3 -1278 -2 0 115 0 115 1278 -2 1277 -3
0 -110z m-1027 -442 l3 -113 -1331 0 -1330 0 0 115 0 115 1328 -2 1327 -3 3
-112z m1027 2 l0 -110 -375 0 -375 0 -3 99 c-1 55 0 106 2 113 5 11 75 13 378
11 l373 -3 0 -110z m-1760 -435 l0 -115 -1267 -3 -1268 -2 0 113 c0 63 3 117
7 120 3 4 574 6 1267 5 l1261 -3 0 -115z m1760 98 c3 -13 5 -66 3 -118 l-3
-95 -835 0 -835 0 -3 104 c-1 58 0 111 2 118 4 11 158 13 835 13 l831 0 5 -22z
m0 -440 c3 -13 5 -66 3 -118 l-3 -95 -1277 -3 -1278 -2 0 120 0 120 1275 0
1275 0 5 -22z m-1739 -428 l714 0 0 -115 0 -115 -1330 0 -1330 0 0 115 0 115
603 2 c331 2 608 2 615 1 8 -2 335 -3 728 -3z m1739 -115 l0 -110 -375 0 -375
0 0 110 0 110 340 5 c187 3 356 3 375 0 l35 -5 0 -110z"/>
<path d="M38918 15260 c28 -27 54 -50 59 -50 4 0 -15 23 -42 50 -27 28 -53 50
-58 50 -6 0 13 -22 41 -50z"/>
<path d="M34140 15028 c-25 -28 -59 -65 -75 -82 -17 -18 -29 -41 -28 -51 2
-11 0 -14 -3 -8 -3 8 -54 -36 -128 -110 -113 -113 -240 -232 -361 -338 -27
-24 -52 -46 -55 -49 -4 -4 -128 -103 -165 -132 -5 -4 -28 -24 -50 -43 -22 -19
-46 -35 -52 -35 -7 0 -13 -4 -13 -8 0 -7 -144 -114 -199 -147 -9 -5 -20 -16
-24 -22 -4 -7 -13 -13 -19 -13 -5 0 -27 -13 -48 -30 -21 -16 -40 -30 -44 -30
-3 0 -31 -17 -63 -39 -95 -64 -184 -121 -188 -121 -2 0 -24 -13 -48 -30 -25
-16 -47 -30 -51 -30 -3 0 -43 -22 -90 -50 -47 -27 -89 -50 -95 -50 -6 0 -11
-4 -11 -8 0 -4 -15 -15 -32 -23 -18 -9 -103 -52 -188 -96 -145 -74 -335 -164
-495 -233 -11 -5 -41 -18 -67 -29 -26 -12 -54 -21 -62 -21 -8 0 -17 -4 -21
-10 -3 -5 -20 -14 -38 -19 -18 -5 -57 -19 -87 -31 -30 -12 -70 -26 -87 -31
-59 -18 -34 -26 40 -13 111 19 187 35 241 50 26 8 61 14 77 14 15 0 30 4 33 9
4 5 25 12 49 16 40 7 63 13 207 55 36 11 90 27 120 35 30 9 62 20 70 24 9 5
30 12 49 16 18 4 44 13 59 21 15 8 37 14 50 14 12 0 22 4 22 9 0 5 17 13 38
19 48 13 95 30 157 58 28 12 79 34 115 49 112 47 121 51 285 133 233 117 288
146 303 160 7 6 17 12 22 12 10 0 210 120 303 182 32 21 62 38 67 38 5 0 10 3
12 8 5 10 66 52 77 52 5 0 11 3 13 8 2 4 23 20 48 37 25 16 47 32 50 35 10 10
69 50 75 50 3 0 13 8 23 18 10 9 38 34 63 54 105 88 144 118 154 118 6 0 17 8
26 18 8 9 37 35 64 57 97 80 116 98 110 104 -3 3 -10 0 -14 -7 -4 -7 -9 55
-10 137 l-2 150 118 3 118 3 0 85 0 85 -127 3 c-119 2 -128 4 -128 22 0 14 -5
18 -16 13 -9 -3 -19 -1 -23 5 -4 6 -24 -10 -51 -40z m20 -109 c0 -24 -4 -38
-10 -34 -5 3 -10 22 -10 41 0 19 5 34 10 34 6 0 10 -18 10 -41z m-173 -115
c-3 -3 -12 -4 -19 -1 -8 3 -5 6 6 6 11 1 17 -2 13 -5z"/>
<path d="M34510 14789 c0 -5 5 -7 10 -4 6 3 10 8 10 11 0 2 -4 4 -10 4 -5 0
-10 -5 -10 -11z"/>
<path d="M41513 14293 c-7 -17 5 -29 101 -108 27 -22 140 -116 250 -208 111
-93 248 -208 305 -255 57 -48 122 -103 145 -122 23 -19 64 -53 91 -75 27 -22
62 -52 79 -66 17 -14 44 -37 60 -50 16 -13 37 -31 45 -39 9 -8 36 -30 60 -49
34 -28 45 -31 52 -20 5 8 9 17 9 20 0 7 -51 54 -125 114 -51 42 -112 93 -131
110 -6 6 -31 26 -55 46 -39 33 -347 290 -505 423 -33 28 -80 67 -104 86 -24
19 -58 47 -75 61 -16 14 -43 37 -59 50 -16 13 -48 41 -70 61 -45 41 -63 47
-73 21z"/>
<path d="M28474 13729 c4 -46 15 -101 25 -124 14 -29 22 -84 31 -210 7 -113
17 -181 27 -203 31 -66 277 -305 398 -388 16 -11 54 -37 83 -57 112 -80 379
-227 410 -227 7 0 12 -4 12 -10 0 -5 6 -10 14 -10 7 0 35 -9 62 -21 27 -11 58
-24 69 -28 11 -5 34 -14 50 -21 45 -18 174 -60 186 -60 6 0 25 -6 42 -14 18
-7 50 -18 72 -23 22 -6 47 -13 55 -17 13 -6 16 21 19 206 1 121 7 218 13 225
7 9 -5 19 -44 39 -29 14 -91 50 -138 79 -47 29 -95 55 -108 59 -12 4 -22 12
-22 17 0 5 -4 9 -9 9 -6 0 -53 26 -106 58 -52 31 -106 63 -120 70 -14 7 -25
17 -25 23 0 5 -6 9 -13 9 -8 0 -33 14 -55 30 -23 17 -45 30 -48 30 -3 0 -16 8
-29 18 -25 19 -39 28 -110 75 -53 35 -144 98 -235 162 -75 53 -359 266 -444
334 l-69 54 7 -84z"/>
<path d="M31168 13073 c6 -2 18 -2 25 0 6 3 1 5 -13 5 -14 0 -19 -2 -12 -5z"/>
<path d="M34495 13000 c-8 -13 4 -32 16 -25 12 8 12 35 0 35 -6 0 -13 -4 -16
-10z"/>
<path d="M26620 12923 c0 -5 -13 -21 -28 -38 -15 -16 -59 -70 -97 -118 -87
-111 -123 -155 -168 -209 -19 -24 -63 -78 -97 -121 -34 -43 -70 -88 -80 -100
-20 -24 -66 -80 -130 -163 -26 -33 -38 -57 -34 -68 8 -21 21 -20 29 3 3 10 19
30 35 45 17 14 30 33 30 41 0 14 23 44 88 112 17 18 32 38 32 43 0 6 14 25 30
43 17 17 46 50 66 72 20 22 46 51 59 65 13 14 26 35 30 48 3 12 15 27 26 33
12 6 26 24 33 40 7 17 42 61 77 97 35 37 74 79 85 92 25 29 42 90 25 90 -6 0
-11 -3 -11 -7z"/>
<path d="M34401 12905 c3 -14 13 -21 34 -22 17 -1 23 0 15 4 -8 3 -23 13 -34
22 -17 15 -18 15 -15 -4z"/>
<path d="M34305 12850 c-3 -5 -1 -10 4 -10 6 0 11 5 11 10 0 6 -2 10 -4 10 -3
0 -8 -4 -11 -10z"/>
<path d="M34271 12806 c-8 -9 -11 -65 -9 -167 3 -146 4 -154 23 -154 19 0 20
8 25 157 4 138 3 158 -12 167 -12 7 -19 6 -27 -3z"/>
<path d="M22190 12699 c-50 -26 -220 -106 -312 -147 -43 -19 -45 -31 -20 -107
16 -48 19 -50 57 -52 66 -5 152 -23 232 -50 57 -19 77 -22 83 -13 4 7 11 44
15 84 3 39 13 114 21 166 19 128 18 150 -3 149 -10 -1 -43 -14 -73 -30z"/>
<path d="M21000 12620 c-113 -37 -281 -93 -375 -123 -115 -38 -169 -60 -167
-69 2 -7 28 -70 59 -140 30 -70 53 -133 50 -140 -2 -7 -33 -21 -68 -32 -35
-10 -77 -24 -94 -31 -16 -6 -57 -20 -90 -30 -33 -10 -76 -24 -95 -31 -19 -7
-54 -18 -77 -24 -40 -10 -42 -12 -49 -58 -3 -26 -9 -51 -13 -57 -3 -5 -11 -39
-18 -75 -6 -36 -19 -99 -28 -140 -19 -86 -38 -179 -55 -265 -7 -33 -19 -79
-26 -103 -10 -33 -10 -45 -1 -53 7 -6 84 -56 172 -112 l160 -102 6 -145 c4
-80 10 -173 14 -207 l8 -61 -134 -65 c-74 -35 -142 -67 -151 -70 -10 -4 -18
-12 -18 -19 0 -13 52 -160 76 -215 8 -17 14 -36 14 -42 0 -6 6 -25 14 -43 19
-45 35 -89 96 -258 29 -80 59 -159 66 -177 8 -17 14 -37 14 -45 0 -8 6 -21 13
-30 13 -17 25 -16 187 17 36 7 86 16 111 20 45 6 46 5 72 -34 15 -22 27 -43
27 -46 0 -3 5 -11 10 -18 6 -7 39 -50 74 -97 34 -47 70 -91 79 -99 23 -19 22
-28 -19 -144 -79 -221 -94 -271 -87 -277 44 -41 569 -430 579 -430 14 0 186
54 354 111 112 38 117 38 131 -13 6 -24 17 -63 25 -88 7 -25 21 -70 30 -101
l16 -57 82 28 c44 15 182 60 306 99 124 40 232 76 240 80 9 5 30 12 48 15 17
4 59 21 92 37 33 16 69 29 80 29 11 0 20 4 20 9 0 5 15 12 33 16 17 3 48 14
67 22 19 9 49 22 65 29 17 7 46 19 65 27 19 8 63 25 98 37 34 13 64 26 66 29
3 3 -6 29 -19 56 -50 107 -65 144 -65 159 0 9 -4 16 -10 16 -5 0 -12 17 -16
38 -4 20 -11 40 -16 43 -12 7 -28 68 -20 73 4 2 34 6 67 10 33 4 92 11 130 16
39 6 118 14 176 20 58 5 113 12 121 15 9 4 18 25 22 53 6 44 17 100 52 248 8
33 14 77 14 97 0 19 4 38 9 41 5 3 11 16 13 29 4 23 3 24 -46 19 -28 -2 -55
-8 -60 -13 -6 -5 -33 -9 -61 -9 -66 0 -214 -18 -240 -30 -11 -5 -49 -11 -85
-15 -36 -4 -70 -10 -75 -15 -6 -5 -60 -12 -120 -16 -61 -4 -114 -10 -120 -14
-5 -4 -41 -11 -80 -15 -38 -4 -74 -10 -80 -15 -5 -4 -41 -11 -80 -15 -38 -4
-75 -11 -81 -16 -6 -5 -60 -12 -120 -15 -62 -4 -115 -12 -124 -19 -8 -7 -60
-15 -119 -18 -56 -4 -109 -11 -115 -16 -7 -6 -63 -13 -124 -17 -75 -5 -116
-12 -123 -21 -8 -8 -35 -13 -81 -13 -46 0 -70 -4 -72 -12 -2 -7 -8 -29 -15
-48 -7 -19 -14 -41 -15 -48 -1 -8 -8 -17 -16 -22 -7 -5 -11 -18 -8 -34 3 -15
3 -24 0 -22 -9 9 -31 -28 -32 -51 0 -14 -6 -23 -16 -23 -12 0 -14 4 -7 13 6 6
11 19 11 27 1 23 90 280 111 321 l19 37 -32 35 c-62 72 -124 158 -188 262 -23
39 -46 72 -50 73 -5 2 -8 10 -8 18 0 18 -44 19 -62 2 -7 -7 -36 -24 -63 -38
-28 -14 -52 -27 -55 -30 -7 -7 -107 -60 -113 -60 -2 0 -19 42 -37 93 -18 50
-36 96 -41 101 -5 6 -9 19 -9 31 0 12 -7 30 -15 41 -8 10 -15 25 -15 32 0 8
-6 28 -14 45 -7 18 -24 61 -36 97 -13 36 -27 70 -30 75 -4 6 -11 26 -15 45 -4
19 -11 40 -15 45 -4 6 -11 21 -15 35 -4 14 -13 39 -19 55 -7 17 -17 44 -23 60
-6 17 -13 37 -17 45 -6 16 40 31 139 45 22 3 71 11 108 17 l68 11 -6 66 c-4
36 -11 82 -16 101 -5 19 -12 108 -16 196 l-6 161 -48 32 c-26 17 -50 31 -53
31 -2 0 -46 27 -96 61 -50 33 -103 65 -117 72 -19 8 -24 17 -20 36 3 15 23
114 46 221 23 107 53 254 68 325 14 72 29 134 33 138 8 9 95 -65 240 -201 l88
-84 15 24 c77 124 113 174 161 222 31 30 56 58 56 61 0 3 -14 35 -31 72 -34
75 -38 86 -69 158 -12 28 -25 59 -30 70 -37 83 -50 115 -50 123 0 32 -33 26
-230 -38z"/>
<path d="M15880 12412 c-244 -37 -360 -301 -219 -497 49 -69 106 -104 201
-124 92 -20 198 15 280 91 47 45 88 145 88 218 0 87 -59 202 -128 251 -63 43
-161 71 -222 61z"/>
<path d="M28205 11853 c9 -21 24 -49 35 -63 11 -14 30 -43 41 -65 12 -22 25
-42 29 -45 14 -11 73 -128 91 -185 19 -55 19 -67 8 -154 -10 -70 -19 -101 -35
-121 -12 -14 -26 -43 -30 -65 -4 -21 -20 -52 -35 -68 -16 -17 -29 -41 -29 -54
0 -13 -11 -35 -24 -48 -14 -13 -28 -35 -31 -47 -4 -13 -19 -39 -35 -58 -15
-20 -31 -50 -34 -68 -4 -17 -18 -40 -30 -49 -12 -10 -26 -30 -29 -45 -4 -15
-17 -37 -29 -48 -29 -27 -50 -96 -34 -109 11 -10 24 -13 241 -54 396 -76 595
-93 1145 -96 l345 -2 -3 244 -3 245 -42 -4 -42 -4 35 10 c19 5 53 7 75 3 22
-3 54 -7 72 -7 17 -1 35 -4 39 -9 4 -4 30 -7 58 -7 29 0 89 -5 134 -10 45 -6
155 -15 244 -21 90 -5 191 -12 225 -15 53 -5 64 -3 82 15 15 15 34 21 69 21
26 0 53 5 59 11 8 8 16 7 31 -2 18 -11 24 -10 40 4 10 9 24 17 30 17 7 0 12 6
12 14 0 8 9 18 20 21 11 3 20 15 20 25 0 14 -10 19 -47 23 -128 15 -210 28
-228 36 -11 5 -49 12 -84 15 -36 3 -79 10 -95 15 -17 5 -62 15 -101 21 -106
17 -185 33 -415 83 -88 20 -141 33 -310 79 -531 144 -1046 372 -1349 597 -45
33 -87 61 -92 61 -5 0 -2 -17 6 -37z m1502 -939 c-3 -3 -12 -4 -19 -1 -8 3 -5
6 6 6 11 1 17 -2 13 -5z"/>
<path d="M21916 11618 c-59 -11 -147 -67 -184 -117 -15 -20 -29 -38 -32 -41
-20 -20 -80 -142 -80 -164 0 -8 -4 -18 -10 -21 -19 -12 -10 -42 16 -55 31 -17
151 -153 199 -226 50 -75 135 -247 135 -272 0 -5 7 -23 15 -38 8 -16 15 -39
15 -52 0 -13 5 -32 10 -42 16 -30 40 -216 39 -310 0 -47 -6 -118 -13 -157 -7
-40 -10 -76 -7 -80 3 -5 26 -22 51 -39 91 -63 189 -96 285 -97 111 0 206 42
285 125 41 42 110 166 110 196 0 10 5 23 10 28 42 42 42 526 0 568 -6 6 -10
18 -10 28 0 10 -9 46 -21 80 -121 363 -384 646 -639 687 -75 13 -106 12 -174
-1z"/>
<path d="M10895 10970 c-49 -3 -108 -12 -130 -19 -22 -8 -60 -20 -85 -29 -180
-60 -350 -192 -459 -356 -46 -69 -111 -196 -111 -215 0 -6 -7 -30 -15 -55 -8
-24 -19 -82 -24 -130 -9 -95 2 -758 19 -1071 6 -110 15 -402 20 -650 5 -247
14 -560 20 -695 12 -284 27 -787 40 -1350 10 -412 18 -518 52 -635 59 -200
195 -389 364 -506 58 -39 178 -99 201 -99 10 0 28 -7 40 -15 55 -39 142 -40
3273 -39 3145 1 3330 3 3435 42 155 58 225 102 343 216 95 92 165 195 211 311
66 166 64 151 101 1250 30 917 68 2034 86 2550 25 707 16 806 -89 1004 -122
230 -332 398 -592 473 l-80 23 -3265 1 c-1796 0 -3305 -2 -3355 -6z m6684 -67
c332 -98 577 -357 646 -683 9 -43 15 -125 15 -208 0 -140 -25 -880 -35 -1052
-3 -52 -17 -430 -30 -840 -68 -2016 -78 -2235 -104 -2325 -71 -239 -239 -441
-458 -551 -105 -52 -172 -71 -290 -85 -51 -6 -1316 -8 -3225 -7 -3038 3 -3145
4 -3198 22 -316 107 -508 283 -610 558 -52 141 -45 16 -100 1803 -11 358 -23
693 -25 745 -4 89 -18 523 -46 1427 -13 427 -9 485 43 631 70 199 213 369 403
479 83 48 221 95 310 106 17 2 1515 4 3330 3 l3300 -1 74 -22z"/>
<path d="M31010 10950 c0 -5 7 -10 15 -10 8 0 15 5 15 10 0 6 -7 10 -15 10 -8
0 -15 -4 -15 -10z"/>
<path d="M19243 5743 c-34 -43 -72 -91 -85 -107 -91 -113 -108 -136 -108 -144
0 -5 12 -18 28 -27 15 -10 94 -66 175 -124 81 -58 165 -117 185 -131 20 -14
90 -63 155 -110 66 -47 129 -91 140 -99 12 -8 52 -36 88 -63 37 -26 71 -48 76
-48 6 0 24 26 40 58 16 31 55 107 88 167 32 61 71 134 87 164 16 30 25 58 21
61 -8 7 -435 259 -510 301 -21 12 -95 55 -165 95 -70 41 -133 77 -141 79 -8 4
-36 -23 -74 -72z"/>
<path d="M19304 4835 c-4 -9 10 -37 33 -68 22 -28 80 -105 129 -170 135 -178
142 -188 178 -242 19 -27 42 -60 52 -73 25 -30 67 -85 115 -152 66 -91 93
-121 122 -136 15 -8 27 -11 27 -6 0 5 -25 42 -55 82 -30 40 -55 76 -55 80 0 3
-12 20 -27 37 -16 17 -76 98 -135 180 -146 200 -282 389 -320 441 -33 44 -54
53 -64 27z"/>
</g>
</svg>
